<svg width="268" height="399" viewBox="0 0 268 399" fill="none" xmlns="http://www.w3.org/2000/svg">
<g filter="url(#filter0_d)">
<mask id="path-1-inside-1" fill="white">
<path d="M24.0671 219.711C19.4102 209.441 18.4584 197.874 21.3739 186.98C24.2894 176.087 30.8918 166.542 40.0561 159.97C49.2205 153.399 60.3798 150.209 71.6326 150.944C82.8854 151.678 93.5354 156.291 101.768 163.997C110.001 171.704 115.307 182.026 116.782 193.206C118.257 204.386 115.81 215.731 109.858 225.309C103.906 234.887 94.8169 242.105 84.1397 245.733C73.4624 249.361 61.8576 249.174 51.3025 245.205L59.1345 224.378C64.8711 226.535 71.1782 226.636 76.9811 224.664C82.784 222.693 87.7238 218.77 90.9586 213.564C94.1935 208.359 95.5234 202.193 94.7217 196.117C93.92 190.041 91.0363 184.431 86.5619 180.242C82.0876 176.054 76.2994 173.547 70.1837 173.148C64.0679 172.749 58.003 174.482 53.0223 178.054C48.0416 181.625 44.4533 186.813 42.8687 192.733C41.2842 198.654 41.8015 204.94 44.3325 210.522L24.0671 219.711Z"/>
</mask>
<path d="M24.0671 219.711C19.4102 209.441 18.4584 197.874 21.3739 186.98C24.2894 176.087 30.8918 166.542 40.0561 159.97C49.2205 153.399 60.3798 150.209 71.6326 150.944C82.8854 151.678 93.5354 156.291 101.768 163.997C110.001 171.704 115.307 182.026 116.782 193.206C118.257 204.386 115.81 215.731 109.858 225.309C103.906 234.887 94.8169 242.105 84.1397 245.733C73.4624 249.361 61.8576 249.174 51.3025 245.205L59.1345 224.378C64.8711 226.535 71.1782 226.636 76.9811 224.664C82.784 222.693 87.7238 218.77 90.9586 213.564C94.1935 208.359 95.5234 202.193 94.7217 196.117C93.92 190.041 91.0363 184.431 86.5619 180.242C82.0876 176.054 76.2994 173.547 70.1837 173.148C64.0679 172.749 58.003 174.482 53.0223 178.054C48.0416 181.625 44.4533 186.813 42.8687 192.733C41.2842 198.654 41.8015 204.94 44.3325 210.522L24.0671 219.711Z" stroke="white" stroke-width="160" mask="url(#path-1-inside-1)"/>
</g>
<defs>
<filter id="filter0_d" x="-130.283" y="0.839844" width="397.484" height="397.484" filterUnits="userSpaceOnUse" color-interpolation-filters="sRGB">
<feFlood flood-opacity="0" result="BackgroundImageFix"/>
<feColorMatrix in="SourceAlpha" type="matrix" values="0 0 0 0 0 0 0 0 0 0 0 0 0 0 0 0 0 0 127 0"/>
<feOffset/>
<feGaussianBlur stdDeviation="75"/>
<feColorMatrix type="matrix" values="0 0 0 0 1 0 0 0 0 1 0 0 0 0 1 0 0 0 1 0"/>
<feBlend mode="normal" in2="BackgroundImageFix" result="effect1_dropShadow"/>
<feBlend mode="normal" in="SourceGraphic" in2="effect1_dropShadow" result="shape"/>
</filter>
</defs>
</svg>
