<svg viewBox="0 0 29 29" xmlns="http://www.w3.org/2000/svg">
<path d="M14.5 0C6.49185 0 0 6.49185 0 14.5C0 22.5082 6.49185 29 14.5 29C22.5082 29 29 22.5082 29 14.5C28.9907 6.49571 22.5043 0.00929637 14.5 0ZM14.5 28.0645C7.00853 28.0645 0.935484 21.9915 0.935484 14.5C0.935484 7.00853 7.00853 0.935484 14.5 0.935484C21.9915 0.935484 28.0645 7.00853 28.0645 14.5C28.0563 21.9881 21.9881 28.0563 14.5 28.0645Z"/>
<path d="M21.1148 7.8852C20.9322 7.7026 20.6361 7.7026 20.4534 7.8852L14.5 13.8386L8.54662 7.8852C8.36718 7.69939 8.07104 7.69424 7.88523 7.87368C7.69942 8.05312 7.69427 8.34926 7.87371 8.53507C7.87745 8.53899 7.88131 8.54279 7.88523 8.54659L13.8386 14.5L7.88523 20.4534C7.69942 20.6329 7.69427 20.929 7.87377 21.1148C8.05327 21.3006 8.34935 21.3058 8.53516 21.1263C8.53907 21.1225 8.54287 21.1187 8.54662 21.1148L14.5 15.1614L20.4534 21.1148C20.6392 21.2943 20.9353 21.2892 21.1148 21.1034C21.2899 20.9221 21.2899 20.6347 21.1148 20.4534L15.1614 14.5L21.1148 8.54659C21.2974 8.36393 21.2974 8.06785 21.1148 7.8852Z"/>
</svg>
