<svg width="57" height="16" viewBox="0 0 57 16" fill="none" xmlns="http://www.w3.org/2000/svg">
<g clip-path="url(#clip0)">
<path fill-rule="evenodd" clip-rule="evenodd" d="M18.8168 11.7927C21.8849 11.7927 24.3558 9.34163 24.3558 6.34362C24.3558 3.32535 21.8643 0.894531 18.8168 0.894531C15.7693 0.894531 13.2777 3.32535 13.2777 6.32336C13.2777 9.34163 15.7487 11.7927 18.8168 11.7927ZM18.8168 9.30111C20.4847 9.30111 21.8231 7.96414 21.8231 6.34362C21.8231 4.70281 20.4641 3.38611 18.8168 3.38611C17.1489 3.38611 15.8104 4.72307 15.8104 6.34362C15.8104 7.96414 17.1489 9.30111 18.8168 9.30111Z" fill="#13A546"/>
<path fill-rule="evenodd" clip-rule="evenodd" d="M21.4938 11.631L23.9853 14.4872C24.4383 15.0139 25.2414 15.0747 25.7768 14.6291C26.3121 14.1834 26.3739 13.3934 25.9209 12.8667L23.4911 10.0713C22.9558 10.7195 22.2762 11.2462 21.4938 11.631Z" fill="#13A546"/>
<path d="M35.3912 9.97835C35.3912 10.3429 35.2676 10.6468 35.0411 10.8696C34.794 11.1127 34.5058 11.214 34.1557 11.214C33.7645 11.214 33.435 11.0722 33.1879 10.7886L30.3669 7.4665L29.143 8.5536V9.95719C29.143 10.3016 29.049 10.586 28.802 10.8291C28.5549 11.0722 28.246 11.1938 27.9165 11.1938C27.5871 11.1938 27.2782 11.0722 27.0311 10.8291C26.784 10.586 26.681 10.2822 26.681 9.95809V2.78717C26.681 2.44281 26.8046 2.15921 27.0311 1.91613C27.2782 1.67305 27.5871 1.55151 27.9371 1.55151C28.2872 1.55151 28.5755 1.67305 28.802 1.91613C29.049 2.15921 29.1391 2.46306 29.1391 2.78717V5.82571L33.1467 1.85536C33.3732 1.63253 33.6409 1.53125 33.9704 1.53125C34.2999 1.53125 34.5881 1.65279 34.794 1.87562C35.0205 2.09844 35.1235 2.36178 35.1235 2.68589C35.1235 3.01 35.0205 3.29359 34.794 3.49616L32.1995 6.00801L35.1441 9.22884C35.3088 9.39089 35.3912 9.65423 35.3912 9.97835Z" fill="#2C2B67"/>
<path d="M40.1784 10.0123V3.87451H38.4693C38.1605 3.87451 37.8928 3.77322 37.6663 3.57066C37.4604 3.36809 37.3574 3.10475 37.3574 2.8009C37.3574 2.49704 37.4604 2.25396 37.6663 2.03114C37.8928 1.80832 38.1605 1.70703 38.4693 1.70703H44.4407C44.7498 1.70703 44.9969 1.80832 45.2234 2.03114C45.4499 2.23371 45.5526 2.49704 45.5526 2.8009C45.5526 3.08449 45.4499 3.34783 45.2234 3.57066C45.0174 3.77322 44.7498 3.87451 44.4407 3.87451H42.7114V10.0326C42.7114 10.3769 42.5876 10.6605 42.3406 10.9036C42.0935 11.1467 41.7844 11.2682 41.4551 11.2682C41.105 11.2682 40.8168 11.1467 40.5697 10.9036C40.3226 10.6605 40.1784 10.3567 40.1784 10.0123Z" fill="#2C2B67"/>
<path d="M48.5303 12.7245L48.6536 12.7042C49.3126 12.684 49.745 12.4611 49.9715 12.0155L50.3217 11.2052L47.027 3.18352C46.9654 3.08223 46.9448 2.92018 46.9448 2.73787C46.9448 2.39351 47.0681 2.10991 47.2946 1.88708C47.5417 1.644 47.8303 1.52246 48.1595 1.52246C48.7568 1.52246 49.1481 1.7858 49.3126 2.29222L51.619 8.3085L53.9046 2.29222C54.1105 1.7858 54.5018 1.52246 55.0781 1.52246C55.4284 1.52246 55.7371 1.644 55.9636 1.88708C56.2106 2.13016 56.3138 2.41376 56.3138 2.73787C56.3138 2.87967 56.2727 3.04172 56.2106 3.20377L52.3191 12.6232C51.7218 14.1222 50.5688 14.892 48.839 14.9122C48.6951 14.9122 48.592 14.9122 48.5714 14.892C48.2417 14.8717 47.9741 14.7704 47.7476 14.5678C47.5211 14.3653 47.4389 14.1019 47.4389 13.7778C47.4389 13.474 47.5417 13.2309 47.7476 13.0283C47.9947 12.846 48.2417 12.7447 48.5303 12.7245Z" fill="#2C2B67"/>
<path d="M11.7415 10.2126V12.4814C11.7415 12.7852 11.6386 13.0283 11.4327 13.2511C11.2268 13.4739 10.9591 13.555 10.6502 13.555C10.3413 13.555 10.0736 13.4537 9.84714 13.2511C9.64124 13.0486 9.53827 12.7852 9.53827 12.4814V11.048H2.96963V12.4814C2.96963 12.7852 2.86667 13.0283 2.66076 13.2511C2.45485 13.4739 2.18716 13.555 1.87829 13.555C1.56942 13.555 1.30173 13.4537 1.07523 13.2511C0.869315 13.0486 0.766357 12.7852 0.766357 12.4814V10.5772C0.766357 9.64542 1.07523 9.11874 1.67237 8.9567C2.20775 7.98437 2.59899 6.30307 2.82549 3.91275L2.90786 3.00119C2.94904 2.5758 3.09318 2.25169 3.36087 2.02886C3.62855 1.78578 3.95893 1.7041 4.37076 1.7041L9.16868 1.70411C9.64227 1.70411 10.0119 1.78578 10.2589 2.04912C10.5266 2.2922 10.6502 2.65682 10.6502 3.12273V8.93644C11.3915 8.99722 11.7415 9.4226 11.7415 10.2126ZM8.17687 9.01326V3.73627H5.06725L5.00818 4.64199C4.88461 6.66767 4.52798 8.20297 4.01321 9.01326H8.17687Z" fill="#2C2B67"/>
</g>
<defs>
<clipPath id="clip0">
<rect width="56.3158" height="14.2105" fill="white" transform="translate(0.36853 0.894531)"/>
</clipPath>
</defs>
</svg>
