<svg width="718" height="392" viewBox="0 0 718 392" fill="none" xmlns="http://www.w3.org/2000/svg">
<path d="M0 0H198.624C246.269 0 288.035 8.0396 324.543 24.396C361.05 40.7525 389.204 63.4851 409.623 92.8713C429.733 122.257 439.942 156.634 439.942 196C439.942 235.089 429.733 269.465 409.623 299.129C389.513 328.515 361.05 351.525 324.543 367.604C288.345 383.683 246.269 392 198.624 392H0V0ZM193.674 317.426C237.297 317.426 272.257 306.614 298.245 284.713C324.233 262.812 337.227 233.426 337.227 196C337.227 158.574 324.233 129.188 298.245 107.287C272.257 85.3861 237.606 74.297 193.674 74.297H101.168V317.426H193.674Z" fill="white"/>
<path d="M649.4 97.1109C669.187 89.6207 692.065 86.0144 717.727 86.0144V166.741C706.906 165.909 699.486 165.632 695.775 165.632C667.95 165.632 645.999 172.567 630.231 186.715C614.463 200.863 606.425 221.669 606.425 249.688V392H509.036V90.453H602.097V130.123C613.845 115.697 629.613 104.601 649.4 97.1109Z" fill="white"/>
</svg>
