<svg width="238" height="130" viewBox="0 0 238 130" fill="none" xmlns="http://www.w3.org/2000/svg">
<path d="M0 0H65.7617C81.5363 0 95.3647 2.66181 107.452 8.0772C119.539 13.4926 128.86 21.0191 135.621 30.7485C142.279 40.4778 145.659 51.8593 145.659 64.893C145.659 77.8349 142.279 89.2164 135.621 99.0376C128.963 108.767 119.539 116.385 107.452 121.709C95.4671 127.032 81.5363 129.786 65.7617 129.786H0V0ZM64.1228 105.095C78.5658 105.095 90.1407 101.516 98.745 94.2647C107.349 87.0135 111.651 77.2842 111.651 64.893C111.651 52.5018 107.349 42.7725 98.745 35.5213C90.1407 28.2702 78.6682 24.5988 64.1228 24.5988H33.4954V105.095H64.1228Z" fill="white"/>
<path d="M215.008 32.1521C221.559 29.6722 229.134 28.4782 237.63 28.4782V55.2058C234.047 54.9303 231.59 54.8384 230.362 54.8384C221.149 54.8384 213.882 57.1346 208.661 61.8189C203.441 66.5031 200.779 73.3916 200.779 82.6682V129.786H168.535V29.9478H199.346V43.082C203.236 38.3059 208.456 34.632 215.008 32.1521Z" fill="white"/>
</svg>
