<svg viewBox="0 0 24 30" xmlns="http://www.w3.org/2000/svg">
<path d="M23.0669 6.43313L16.8169 0.183105C16.6997 0.065918 16.541 0 16.375 0H3.24996C1.87119 0 0.75 1.12119 0.75 2.50002V27.5C0.75 28.8788 1.87119 30 3.25002 30H20.75C22.1288 30 23.25 28.8788 23.25 27.5V6.87498C23.25 6.70898 23.1841 6.55031 23.0669 6.43313ZM17 2.13381L21.1162 6.25002H18.25C17.5609 6.25002 17 5.6891 17 5.00004V2.13381ZM22 27.5C22 28.189 21.4391 28.75 20.75 28.75H3.25002C2.56096 28.75 2.00004 28.189 2.00004 27.5V2.50002C2.00004 1.81096 2.56096 1.25004 3.25002 1.25004H15.75V5.00004C15.75 6.37881 16.8712 7.5 18.25 7.5H22V27.5Z"/>
<path d="M15.1866 18.3478C14.608 17.8925 14.0581 17.4244 13.6919 17.0581C13.2158 16.5821 12.7916 16.1206 12.423 15.6812C12.998 13.9045 13.25 12.9883 13.25 12.5C13.25 10.4254 12.5005 10 11.375 10C10.5199 10 9.50004 10.4443 9.50004 12.5598C9.50004 13.4925 10.0109 14.6247 11.0235 15.9406C10.7757 16.6968 10.4845 17.569 10.1574 18.5523C9.9999 19.0241 9.82904 19.4611 9.64834 19.8651C9.50127 19.9305 9.35842 19.997 9.22049 20.0659C8.72367 20.3144 8.25188 20.5377 7.81424 20.7453C5.81836 21.6901 4.5 22.3151 4.5 23.5492C4.5 24.4452 5.47354 25 6.375 25C7.53709 25 9.29186 23.4478 10.5736 20.8331C11.9041 20.3082 13.5582 19.9194 14.8638 19.6759C15.9099 20.4803 17.0653 21.25 17.625 21.25C19.1747 21.25 19.5 20.354 19.5 19.6026C19.5 18.125 17.8117 18.125 17 18.125C16.7479 18.125 16.0717 18.1995 15.1866 18.3478ZM6.375 23.75C6.01793 23.75 5.77623 23.5816 5.74998 23.5492C5.74998 23.1061 7.07139 22.4799 8.34949 21.8744C8.43064 21.836 8.51309 21.7975 8.5967 21.7578C7.65797 23.119 6.72961 23.75 6.375 23.75ZM10.75 12.5598C10.75 11.25 11.1565 11.25 11.375 11.25C11.817 11.25 12.0001 11.25 12.0001 12.5C12.0001 12.7637 11.8243 13.4229 11.5026 14.452C11.0118 13.6963 10.75 13.0487 10.75 12.5598ZM11.2291 19.2774C11.2682 19.1687 11.3061 19.0589 11.3427 18.9478C11.5746 18.252 11.7834 17.627 11.9695 17.0642C12.2289 17.3499 12.5085 17.6423 12.8082 17.9419C12.9254 18.0591 13.2159 18.3228 13.6029 18.6529C12.8325 18.8208 12.0128 19.0289 11.2291 19.2774ZM18.25 19.6027C18.25 19.8835 18.25 20 17.6702 20.0037C17.4999 19.9671 17.1062 19.7352 16.6204 19.4044C16.7967 19.3848 16.9267 19.3751 17 19.3751C17.9235 19.3751 18.1853 19.4653 18.25 19.6027Z"/>
</svg>
