<svg width="43" height="42" viewBox="0 0 43 42" fill="none" xmlns="http://www.w3.org/2000/svg">
<path d="M42.9027 12.3741C42.9676 14.0634 43 16.9384 43 20.9992C43 25.0599 42.9676 27.9349 42.9027 29.6242C42.7116 33.4372 41.5439 36.3903 39.3997 38.4835C37.2555 40.5766 34.2321 41.686 30.3295 41.8116C28.6024 41.9372 25.6589 42 21.4991 42C17.3394 42 14.3959 41.9372 12.6687 41.8116C8.76611 41.6249 5.75951 40.5003 3.64893 38.4376C2.81774 37.6897 2.13399 36.7992 1.63159 35.8104C1.14558 34.8886 0.772889 33.9139 0.521275 32.9065C0.283377 31.8283 0.172609 30.727 0.191134 29.6242C0.0637114 27.9372 0 25.0622 0 20.9992C0 16.9361 0.0637114 14.03 0.191134 12.2808C0.383427 8.53227 1.53602 5.6267 3.64893 3.56407C5.75951 1.44034 8.76611 0.283428 12.6687 0.0933446C14.3982 0.0311149 17.3417 0 21.4991 0C25.6566 0 28.6001 0.0311149 30.3295 0.0933446C34.2321 0.281165 37.2555 1.42167 39.3997 3.51485C41.5439 5.60803 42.7116 8.56112 42.9027 12.3741ZM38.2964 33.375C38.5191 32.7505 38.6797 32.1066 38.7759 31.4521C38.9201 30.5199 39.0164 29.5814 39.0644 28.6398C39.1269 27.5469 39.1588 26.6564 39.1599 25.9685V16.0315C39.1599 15.3436 39.1281 14.4526 39.0644 13.3585C39.0007 12.2644 38.9045 11.3269 38.7759 10.5462C38.6796 9.8923 38.519 9.24893 38.2964 8.62504C37.9499 7.7005 37.4012 6.86089 36.6885 6.16473C35.9758 5.46857 35.1161 4.93263 34.1696 4.59425C33.5303 4.3764 32.871 4.21897 32.2009 4.12414C31.4005 3.99968 30.4407 3.90633 29.3217 3.8441C28.2027 3.78187 27.3073 3.75076 26.6354 3.75076H16.4132C15.7078 3.75076 14.7955 3.78187 13.6765 3.8441C12.5575 3.90633 11.5978 3.99968 10.7973 4.12414C10.1277 4.21833 9.46894 4.37577 8.8304 4.59425C7.88373 4.93242 7.02402 5.4683 6.31126 6.16448C5.5985 6.86067 5.04986 7.70039 4.70364 8.62504C4.47956 9.24862 4.31836 9.89207 4.22233 10.5462C4.07823 11.4783 3.98254 12.4169 3.93563 13.3585C3.87192 14.4526 3.84006 15.3278 3.84006 15.984V24.979C3.84006 25.573 3.85396 26.3368 3.88698 27.2753C3.91999 28.2138 3.96691 29.0098 4.0312 29.6666C4.09549 30.3234 4.18932 30.9955 4.31963 31.6812C4.41787 32.2529 4.54604 32.8194 4.70364 33.3783C5.53421 35.3165 6.90979 36.6601 8.8304 37.4091C9.46878 37.6278 10.1276 37.7847 10.7973 37.8776C11.7516 38.0191 12.7125 38.1132 13.6765 38.1593C14.7955 38.2227 15.6915 38.2538 16.3646 38.2526H26.585C27.2893 38.2526 28.201 38.2215 29.32 38.1593C30.284 38.1131 31.245 38.019 32.1992 37.8776C32.8694 37.784 33.5287 37.6271 34.1679 37.4091C36.1522 36.5956 37.5283 35.2509 38.2964 33.375ZM13.6765 13.3585C15.8207 11.2664 18.4271 10.2198 21.4957 10.2187C24.5642 10.2176 27.1706 11.2642 29.3148 13.3585C31.459 15.455 32.5311 18.0008 32.5311 20.9958C32.5311 23.9907 31.459 26.5365 29.3148 28.633C27.1706 30.7274 24.5642 31.7745 21.4957 31.7745C18.4271 31.7745 15.8207 30.7274 13.6765 28.633C11.5323 26.5399 10.4608 23.9941 10.462 20.9958C10.4632 17.9974 11.5347 15.4516 13.6765 13.3585ZM16.4132 25.9668C17.0805 26.6202 17.8732 27.1387 18.7459 27.4924C19.6186 27.8462 20.5542 28.0282 21.4991 28.0282C22.444 28.0282 23.3796 27.8462 24.2524 27.4924C25.1251 27.1387 25.9178 26.6202 26.585 25.9668C27.2543 25.315 27.7853 24.5406 28.1476 23.688C28.51 22.8355 28.6965 21.9214 28.6965 20.9983C28.6965 20.0752 28.51 19.1611 28.1476 18.3086C27.7853 17.456 27.2543 16.6816 26.585 16.0298C25.918 15.3757 25.1252 14.8567 24.2523 14.5025C23.3794 14.1484 22.4435 13.9661 21.4983 13.9661C20.553 13.9661 19.6171 14.1484 18.7442 14.5025C17.8713 14.8567 17.0785 15.3757 16.4115 16.0298C15.7418 16.6814 15.2104 17.4557 14.8478 18.3083C14.4853 19.1609 14.2986 20.0751 14.2986 20.9983C14.2986 21.9215 14.4853 22.8357 14.8478 23.6883C15.2104 24.5409 15.7418 25.3152 16.4115 25.9668H16.4132ZM34.7934 8.01576C35.0282 8.2416 35.2131 8.512 35.3368 8.81031C35.4606 9.10861 35.5204 9.42851 35.5127 9.75027C35.5227 10.4132 35.2642 11.053 34.7934 11.5306C34.5691 11.7728 34.2941 11.9651 33.9872 12.0945C33.6802 12.2239 33.3484 12.2874 33.0141 12.2808C32.3298 12.2724 31.676 12.003 31.1923 11.5302C30.7085 11.0574 30.4332 10.4186 30.4251 9.75027C30.4188 9.42434 30.4841 9.10088 30.6166 8.80168C30.749 8.50247 30.9456 8.23448 31.1931 8.01576C31.6818 7.55666 32.3361 7.3042 33.0141 7.31313C33.3441 7.30517 33.6723 7.36342 33.9783 7.48427C34.2844 7.60512 34.5618 7.78602 34.7934 8.01576Z" fill="white"/>
</svg>
