<svg width="170" height="15" viewBox="0 0 170 15" fill="none" xmlns="http://www.w3.org/2000/svg">
<path d="M0 1.64383H6.26449C7.76719 1.64383 9.08449 1.91469 10.2359 2.46575C11.3873 3.01681 12.2753 3.78268 12.9193 4.77272C13.5536 5.76276 13.8756 6.92092 13.8756 8.24719C13.8756 9.56413 13.5536 10.7223 12.9193 11.7217C12.285 12.7117 11.3873 13.4869 10.2359 14.0286C9.09425 14.5704 7.76719 14.8506 6.26449 14.8506H0V1.64383ZM6.10837 12.3381C7.48422 12.3381 8.58684 11.9738 9.4065 11.236C10.2262 10.4981 10.636 9.50809 10.636 8.24719C10.636 6.9863 10.2262 5.99626 9.4065 5.2584C8.58684 4.52054 7.49397 4.14694 6.10837 4.14694H3.19079V12.3381H6.10837Z" fill="white"/>
<path d="M20.4913 4.92215C21.1158 4.66997 21.8379 4.54855 22.6478 4.54855V7.26649C22.3063 7.23847 22.0721 7.22913 21.955 7.22913C21.0768 7.22913 20.384 7.46263 19.8864 7.93896C19.3887 8.4153 19.135 9.1158 19.135 10.0591V14.8505H16.0613V4.69799H18.9984V6.03361C19.3692 5.54793 19.8668 5.17433 20.4913 4.92215Z" fill="white"/>
<path d="M24.17 14.4676C23.7992 14.1127 23.6138 13.6737 23.6138 13.1507C23.6138 12.609 23.7992 12.17 24.17 11.8431C24.5408 11.5069 24.9897 11.3387 25.5264 11.3387C26.063 11.3387 26.5216 11.5069 26.8827 11.8431C27.2535 12.1793 27.4389 12.6183 27.4389 13.1507C27.4389 13.6831 27.2535 14.1221 26.8827 14.4676C26.5119 14.8226 26.063 15 25.5264 15C24.9897 15 24.5311 14.8226 24.17 14.4676Z" fill="white"/>
<path d="M46.0079 12.3941V14.8506H35.3232V1.64383H45.7542V4.10024H38.5042V6.96762H44.9053V9.33997H38.5042V12.3941H46.0079Z" fill="white"/>
<path d="M48.3303 0.849945H51.404V14.8506H48.3303V0.849945Z" fill="white"/>
<path d="M64.7917 4.69803L60.3128 14.8506H57.1416L52.6823 4.69803H55.8535L58.7906 11.6003L61.8253 4.69803H64.7917Z" fill="white"/>
<path d="M66.2065 2.81133C65.8552 2.49377 65.6698 2.11083 65.6698 1.64384C65.6698 1.17684 65.8455 0.784558 66.2065 0.476339C66.5578 0.15878 67.0164 0 67.5824 0C68.1483 0 68.6069 0.14944 68.9582 0.448319C69.3095 0.747198 69.4949 1.13014 69.4949 1.57846C69.4949 2.07347 69.3192 2.47509 68.9582 2.79265C68.6069 3.11021 68.1386 3.27833 67.5824 3.27833C67.0262 3.27833 66.5578 3.12889 66.2065 2.81133ZM66.0504 4.69801H69.1241V14.8506H66.0504V4.69801Z" fill="white"/>
<path d="M81.6141 5.67869C82.4239 6.43523 82.824 7.55603 82.824 9.04108V14.8505H79.7503V9.4894C79.7503 8.68616 79.5649 8.0884 79.1941 7.68679C78.8233 7.29451 78.2964 7.08903 77.5939 7.08903C76.823 7.08903 76.1985 7.32253 75.7399 7.78019C75.2813 8.23784 75.0471 8.91966 75.0471 9.82564V14.8505H71.9734V4.69799H74.9105V5.88417C75.3203 5.45453 75.8277 5.12763 76.4327 4.89413C77.0377 4.66063 77.7012 4.54855 78.4233 4.54855C79.7406 4.54855 80.8042 4.92215 81.6141 5.67869Z" fill="white"/>
<path d="M103.95 14.8506L103.93 6.93025L99.8709 13.4589H98.4365L94.3967 7.09837V14.8506H91.4011V1.64383H94.0455L99.2073 9.85367L104.291 1.64383H106.916L106.945 14.8506H103.95Z" fill="white"/>
<path d="M120.333 10.6009H112.312C112.458 11.2266 112.8 11.731 113.337 12.0953C113.873 12.4595 114.547 12.6463 115.347 12.6463C115.903 12.6463 116.391 12.5716 116.81 12.4128C117.24 12.254 117.63 12.0112 118.001 11.6656L119.64 13.3655C118.645 14.4583 117.181 15.0093 115.269 15.0093C114.068 15.0093 113.015 14.7852 112.097 14.3368C111.18 13.8885 110.468 13.2721 109.97 12.4782C109.473 11.6843 109.219 10.7877 109.219 9.77894C109.219 8.7889 109.463 7.89227 109.96 7.08903C110.448 6.28579 111.131 5.66935 111.99 5.22103C112.849 4.77271 113.815 4.54855 114.878 4.54855C115.913 4.54855 116.859 4.76337 117.698 5.19301C118.537 5.62265 119.201 6.22975 119.679 7.03299C120.157 7.83623 120.401 8.76088 120.401 9.8163C120.391 9.84432 120.372 10.1152 120.333 10.6009ZM113.141 7.34121C112.673 7.71481 112.38 8.23784 112.273 8.89164H117.493C117.386 8.24718 117.103 7.73348 116.625 7.35055C116.157 6.96761 115.571 6.77147 114.888 6.77147C114.195 6.77147 113.61 6.95827 113.141 7.34121Z" fill="white"/>
<path d="M122.441 0.849945H125.514V14.8506H122.441V0.849945Z" fill="white"/>
<path d="M128.529 2.81133C128.178 2.49377 127.993 2.11083 127.993 1.64384C127.993 1.17684 128.168 0.784558 128.529 0.476339C128.881 0.15878 129.339 0 129.905 0C130.471 0 130.93 0.14944 131.281 0.448319C131.632 0.747198 131.818 1.13014 131.818 1.57846C131.818 2.07347 131.642 2.47509 131.281 2.79265C130.93 3.11021 130.462 3.27833 129.905 3.27833C129.349 3.27833 128.89 3.12889 128.529 2.81133ZM128.373 4.69801H131.447V14.8506H128.373V4.69801Z" fill="white"/>
<path d="M138.863 10.8717L137.38 12.2634V14.8506H134.306V0.849945H137.38V8.77024L141.878 4.69801H145.547L141.136 9.00374L145.947 14.8506H142.22L138.863 10.8717Z" fill="white"/>
<path d="M148.904 14.3275C148.016 13.8792 147.323 13.2628 146.825 12.4689C146.328 11.675 146.074 10.7783 146.074 9.7696C146.074 8.76089 146.328 7.86425 146.825 7.07035C147.323 6.27645 148.016 5.66001 148.904 5.21169C149.792 4.76337 150.797 4.53922 151.909 4.53922C153.021 4.53922 154.027 4.76337 154.905 5.21169C155.783 5.66001 156.476 6.27645 156.973 7.07035C157.471 7.86425 157.725 8.76089 157.725 9.7696C157.725 10.7783 157.471 11.675 156.973 12.4689C156.476 13.2628 155.783 13.8792 154.905 14.3275C154.027 14.7758 153.021 15 151.909 15C150.787 15 149.792 14.7758 148.904 14.3275ZM153.851 11.8244C154.358 11.3107 154.612 10.6289 154.612 9.77894C154.612 8.91967 154.358 8.23785 153.851 7.73349C153.343 7.21979 152.699 6.96761 151.909 6.96761C151.119 6.96761 150.475 7.21979 149.958 7.73349C149.44 8.24719 149.187 8.92901 149.187 9.77894C149.187 10.6382 149.44 11.32 149.958 11.8244C150.475 12.3288 151.119 12.5903 151.909 12.5903C152.699 12.5903 153.343 12.3288 153.851 11.8244Z" fill="white"/>
<path d="M170 4.69803L165.531 14.8506H162.36L157.9 4.69803H161.072L164.009 11.6003L167.043 4.69803H170Z" fill="white"/>
</svg>
