<svg width="62" height="70" viewBox="0 0 62 70" fill="none" xmlns="http://www.w3.org/2000/svg">
<path d="M61.9996 31.0763C61.9996 11.6672 44.1487 -3.6501 24.0357 0.766266C18.3049 2.03438 13.0592 4.92862 8.92439 9.10359C4.78962 13.2786 1.94046 18.5579 0.716918 24.3117C-3.17448 42.6666 9.23822 59.0975 26.1496 61.7702C30.8938 63.849 31.1054 70.0005 31.1054 70.0005C31.1054 70.0005 30.8938 63.2126 36.2283 61.7087C50.8396 59.2099 61.9996 46.4254 61.9996 31.0763ZM31.8968 40.8996C29.8826 41.0843 27.8605 40.6423 26.1059 39.6338C24.3513 38.6252 22.9493 37.0992 22.0909 35.2633C21.2324 33.4274 20.9593 31.3709 21.3085 29.3738C21.6577 27.3767 22.6125 25.536 24.0427 24.1023C25.4729 22.6686 27.3091 21.7116 29.3013 21.3615C31.2935 21.0114 33.345 21.2853 35.1764 22.1458C37.0078 23.0063 38.5302 24.4117 39.5362 26.1706C40.5423 27.9295 40.9832 29.9565 40.799 31.9757C40.5874 34.2708 39.5816 36.4195 37.9557 38.0494C36.3298 39.6792 34.1864 40.6875 31.8968 40.8996Z" fill="#E30613"/>
</svg>
