<svg width="507" height="113" viewBox="0 0 507 113" fill="none" xmlns="http://www.w3.org/2000/svg">
<path d="M35.9912 104.483V112.056H0.228638V71.3384H35.1421V78.9118H10.8758V87.7522H32.3006V95.0664H10.8758V104.483H35.9912Z" fill="white"/>
<path d="M43.7642 68.8907H54.052V112.056H43.7642V68.8907Z" fill="white"/>
<path d="M98.8615 80.7548L83.8706 112.056H73.2561L58.3306 80.7548H68.945L78.7756 102.035L88.9328 80.7548H98.8615Z" fill="white"/>
<path d="M103.597 74.938C102.421 73.9589 101.801 72.7783 101.801 71.3385C101.801 69.8987 102.389 68.6893 103.597 67.739C104.773 66.7599 106.308 66.2704 108.202 66.2704C110.096 66.2704 111.631 66.7311 112.807 67.6526C113.983 68.5741 114.603 69.7547 114.603 71.1369C114.603 72.6631 114.016 73.9013 112.807 74.8804C111.631 75.8595 110.064 76.3778 108.202 76.3778C106.34 76.3778 104.773 75.9171 103.597 74.938ZM103.075 80.7548H113.362V112.056H103.075V80.7548Z" fill="white"/>
<path d="M155.167 83.7783C157.878 86.1108 159.217 89.5663 159.217 94.1449V112.056H148.929V95.5271C148.929 93.0506 148.309 91.2077 147.067 89.9694C145.826 88.76 144.063 88.1265 141.711 88.1265C139.131 88.1265 137.041 88.8464 135.506 90.2574C133.971 91.6684 133.187 93.7705 133.187 96.5637V112.056H122.899V80.7547H132.73V84.4118C134.102 83.0872 135.8 82.0793 137.825 81.3594C139.85 80.6395 142.071 80.2939 144.487 80.2939C148.896 80.2939 152.456 81.4458 155.167 83.7783Z" fill="white"/>
<path d="M229.925 112.056L229.86 87.637L216.274 107.765H211.473L197.951 88.1553V112.056H187.925V71.3384H196.776L214.053 96.6502L231.069 71.3384H239.854L239.952 112.056H229.925Z" fill="white"/>
<path d="M284.761 98.9538H257.915C258.405 100.883 259.548 102.438 261.344 103.561C263.141 104.684 265.394 105.26 268.072 105.26C269.934 105.26 271.567 105.03 272.971 104.54C274.408 104.051 275.715 103.302 276.956 102.237L282.443 107.477C279.111 110.847 274.212 112.546 267.811 112.546C263.794 112.546 260.267 111.854 257.197 110.472C254.127 109.09 251.742 107.19 250.077 104.742C248.411 102.294 247.562 99.5297 247.562 96.4198C247.562 93.3674 248.378 90.603 250.044 88.1265C251.677 85.65 253.963 83.7495 256.837 82.3673C259.711 80.9851 262.945 80.2939 266.505 80.2939C269.966 80.2939 273.134 80.9563 275.943 82.2809C278.752 83.6055 280.973 85.4772 282.573 87.9537C284.173 90.4302 284.99 93.281 284.99 96.535C284.957 96.6213 284.892 97.4564 284.761 98.9538ZM260.691 88.904C259.123 90.0558 258.144 91.6684 257.784 93.6841H275.257C274.898 91.6972 273.951 90.1134 272.351 88.9328C270.783 87.7521 268.823 87.1474 266.537 87.1474C264.218 87.1474 262.259 87.7233 260.691 88.904Z" fill="white"/>
<path d="M291.816 68.8907H302.104V112.056H291.816V68.8907Z" fill="white"/>
<path d="M312.195 74.938C311.02 73.9589 310.399 72.7783 310.399 71.3385C310.399 69.8987 310.987 68.6893 312.195 67.739C313.371 66.7599 314.906 66.2704 316.801 66.2704C318.695 66.2704 320.23 66.7311 321.406 67.6526C322.581 68.5741 323.202 69.7547 323.202 71.1369C323.202 72.6631 322.614 73.9013 321.406 74.8804C320.23 75.8595 318.662 76.3778 316.801 76.3778C314.939 76.3778 313.404 75.9171 312.195 74.938ZM311.673 80.7548H321.961V112.056H311.673V80.7548Z" fill="white"/>
<path d="M346.782 99.7889L341.818 104.08V112.056H331.53V68.8907H341.818V93.3098L356.874 80.7547H369.154L354.392 94.0297L370.493 112.056H358.017L346.782 99.7889Z" fill="white"/>
<path d="M380.389 110.444C377.417 109.061 375.099 107.161 373.433 104.713C371.767 102.265 370.918 99.501 370.918 96.3911C370.918 93.2811 371.767 90.5167 373.433 88.069C375.099 85.6213 377.417 83.7208 380.389 82.3386C383.362 80.9564 386.726 80.2653 390.449 80.2653C394.172 80.2653 397.536 80.9564 400.475 82.3386C403.415 83.7208 405.734 85.6213 407.399 88.069C409.065 90.5167 409.914 93.2811 409.914 96.3911C409.914 99.501 409.065 102.265 407.399 104.713C405.734 107.161 403.415 109.061 400.475 110.444C397.536 111.826 394.172 112.517 390.449 112.517C386.693 112.517 383.362 111.826 380.389 110.444ZM396.948 102.726C398.646 101.142 399.496 99.0403 399.496 96.4198C399.496 93.7706 398.646 91.6685 396.948 90.1135C395.25 88.5297 393.094 87.7522 390.449 87.7522C387.803 87.7522 385.648 88.5297 383.917 90.1135C382.186 91.6973 381.337 93.7994 381.337 96.4198C381.337 99.0691 382.186 101.171 383.917 102.726C385.648 104.281 387.803 105.087 390.449 105.087C393.094 105.087 395.25 104.281 396.948 102.726Z" fill="white"/>
<path d="M451 80.7548L436.042 112.056H425.427L410.502 80.7548H421.116L430.947 102.035L441.104 80.7548H451Z" fill="white"/>
<circle cx="488" cy="19" r="19" fill="white"/>
</svg>
