<svg viewBox="0 0 451 47" xmlns="http://www.w3.org/2000/svg">
<path d="M35.9912 38.4827V46.056H0.228638V5.33844H35.1421V12.9118H10.8758V21.7522H32.3006V29.0664H10.8758V38.4827H35.9912Z" />
<path d="M43.7642 2.89075H54.052V46.056H43.7642V2.89075Z" />
<path d="M98.8615 14.7548L83.8706 46.0562H73.2561L58.3306 14.7548H68.945L78.7756 36.0351L88.9328 14.7548H98.8615Z"/>
<path d="M103.597 8.93799C102.421 7.95893 101.801 6.77829 101.801 5.33849C101.801 3.89869 102.389 2.68925 103.597 1.73898C104.773 0.759918 106.308 0.270386 108.202 0.270386C110.096 0.270386 111.631 0.731122 112.807 1.6526C113.983 2.57407 114.603 3.75471 114.603 5.13692C114.603 6.66311 114.016 7.90134 112.807 8.8804C111.631 9.85947 110.064 10.3778 108.202 10.3778C106.34 10.3778 104.773 9.91706 103.597 8.93799ZM103.075 14.7548H113.362V46.0561H103.075V14.7548Z" />
<path d="M155.167 17.7783C157.878 20.1108 159.217 23.5663 159.217 28.1449V46.056H148.929V29.5271C148.929 27.0506 148.309 25.2077 147.067 23.9694C145.826 22.76 144.063 22.1265 141.711 22.1265C139.131 22.1265 137.041 22.8464 135.506 24.2574C133.971 25.6684 133.187 27.7705 133.187 30.5637V46.056H122.899V14.7547H132.73V18.4118C134.102 17.0872 135.8 16.0793 137.825 15.3594C139.85 14.6395 142.071 14.2939 144.487 14.2939C148.896 14.2939 152.456 15.4458 155.167 17.7783Z" />
<path d="M229.925 46.056L229.86 21.637L216.274 41.7654H211.473L197.951 22.1553V46.056H187.925V5.33844H196.776L214.053 30.6502L231.069 5.33844H239.854L239.952 46.056H229.925Z" />
<path d="M284.761 32.9538H257.915C258.405 34.8832 259.548 36.4382 261.344 37.5612C263.141 38.6843 265.394 39.2602 268.072 39.2602C269.934 39.2602 271.567 39.0298 272.971 38.5403C274.408 38.0507 275.715 37.302 276.956 36.2366L282.443 41.4775C279.111 44.8466 274.212 46.5456 267.811 46.5456C263.794 46.5456 260.267 45.8545 257.197 44.4723C254.127 43.0901 251.742 41.1895 250.077 38.7418C248.411 36.2942 247.562 33.5297 247.562 30.4198C247.562 27.3674 248.378 24.603 250.044 22.1265C251.677 19.65 253.963 17.7495 256.837 16.3673C259.711 14.9851 262.945 14.2939 266.505 14.2939C269.966 14.2939 273.134 14.9563 275.943 16.2809C278.752 17.6055 280.973 19.4772 282.573 21.9537C284.173 24.4302 284.99 27.281 284.99 30.535C284.957 30.6213 284.892 31.4564 284.761 32.9538ZM260.691 22.904C259.123 24.0558 258.144 25.6684 257.784 27.6841H275.257C274.898 25.6972 273.951 24.1134 272.351 22.9328C270.783 21.7521 268.823 21.1474 266.537 21.1474C264.218 21.1474 262.259 21.7233 260.691 22.904Z" />
<path d="M291.816 2.89075H302.104V46.056H291.816V2.89075Z" />
<path d="M312.195 8.93799C311.02 7.95893 310.399 6.77829 310.399 5.33849C310.399 3.89869 310.987 2.68925 312.195 1.73898C313.371 0.759918 314.906 0.270386 316.801 0.270386C318.695 0.270386 320.23 0.731122 321.406 1.6526C322.581 2.57407 323.202 3.75471 323.202 5.13692C323.202 6.66311 322.614 7.90134 321.406 8.8804C320.23 9.85947 318.662 10.3778 316.801 10.3778C314.939 10.3778 313.404 9.91706 312.195 8.93799ZM311.673 14.7548H321.961V46.0561H311.673V14.7548Z" />
<path d="M346.782 33.7889L341.818 38.0795V46.056H331.53V2.89075H341.818V27.3098L356.874 14.7547H369.154L354.392 28.0297L370.493 46.056H358.017L346.782 33.7889Z" />
<path d="M380.389 44.4435C377.417 43.0613 375.099 41.1608 373.433 38.7131C371.767 36.2654 370.918 33.501 370.918 30.3911C370.918 27.2811 371.767 24.5167 373.433 22.069C375.099 19.6213 377.417 17.7208 380.389 16.3386C383.362 14.9564 386.726 14.2653 390.449 14.2653C394.172 14.2653 397.536 14.9564 400.475 16.3386C403.415 17.7208 405.734 19.6213 407.399 22.069C409.065 24.5167 409.914 27.2811 409.914 30.3911C409.914 33.501 409.065 36.2654 407.399 38.7131C405.734 41.1608 403.415 43.0613 400.475 44.4435C397.536 45.8257 394.172 46.5168 390.449 46.5168C386.693 46.5168 383.362 45.8257 380.389 44.4435ZM396.948 36.7262C398.646 35.1424 399.496 33.0403 399.496 30.4198C399.496 27.7706 398.646 25.6685 396.948 24.1135C395.25 22.5297 393.094 21.7522 390.449 21.7522C387.803 21.7522 385.648 22.5297 383.917 24.1135C382.186 25.6973 381.337 27.7994 381.337 30.4198C381.337 33.0691 382.186 35.1712 383.917 36.7262C385.648 38.2812 387.803 39.0875 390.449 39.0875C393.094 39.0875 395.25 38.2812 396.948 36.7262Z" />
<path d="M451 14.7548L436.042 46.0562H425.427L410.502 14.7548H421.116L430.947 36.0351L441.104 14.7548H451Z" />
</svg>
