<svg width="19" height="179" viewBox="0 0 19 179" fill="none" xmlns="http://www.w3.org/2000/svg">
<path d="M3.30079 14.8928L0.18934 14.8928L0.189341 0.751239L16.9178 0.75124L16.9178 14.5571L13.8064 14.5571L13.8064 4.96143L10.1744 4.96143L10.1744 13.4335L7.16941 13.4335L7.16941 4.96143L3.30079 4.96143L3.30079 14.8928Z" fill="white"/>
<path d="M17.9235 17.9665L17.9235 22.0346L0.189346 22.0346L0.189346 17.9665L17.9235 17.9665Z" fill="white"/>
<path d="M13.0492 39.7537L0.189298 33.8258L0.189298 29.6285L13.0492 23.7265L13.0492 27.9238L4.30636 31.8111L13.0492 35.8276L13.0492 39.7537Z" fill="white"/>
<path d="M15.439 41.6263C15.8412 41.1613 16.3263 40.916 16.9178 40.916C17.5093 40.916 18.0062 41.1484 18.3966 41.6263C18.7989 42.0912 19 42.6982 19 43.4472C19 44.1963 18.8107 44.8033 18.4321 45.2682C18.0535 45.7331 17.5685 45.9785 17.0006 45.9785C16.3736 45.9785 15.8649 45.7461 15.4626 45.2682C15.0604 44.8033 14.8474 44.1834 14.8474 43.4472C14.8474 42.7111 15.0367 42.0912 15.439 41.6263ZM13.0492 41.4196L13.0492 45.4878L0.1893 45.4878L0.189301 41.4196L13.0492 41.4196Z" fill="white"/>
<path d="M11.807 62.0186C10.8487 63.0906 9.42906 63.62 7.54799 63.62L0.18934 63.62L0.18934 59.5519L6.98012 59.5519C7.99756 59.5519 8.75472 59.3065 9.26343 58.8158C9.76032 58.325 10.0206 57.6276 10.0206 56.6978C10.0206 55.6775 9.72483 54.851 9.14513 54.244C8.56543 53.637 7.70179 53.327 6.55422 53.327L0.18934 53.327L0.189341 49.2589L13.0492 49.2589L13.0492 53.1462L11.5467 53.1462C12.091 53.6886 12.505 54.3602 12.8008 55.1609C13.0966 55.9616 13.2385 56.8398 13.2385 57.7955C13.2385 59.539 12.7653 60.9467 11.807 62.0186Z" fill="white"/>
<path d="M0.18934 91.5804L10.2217 91.5546L1.9521 86.1821L1.9521 84.2836L10.0088 78.9369L0.18934 78.9369L0.189341 74.9721L16.9178 74.9721L16.9178 78.472L6.51872 85.3039L16.9178 92.0325L16.9178 95.5065L0.18934 95.5453L0.18934 91.5804Z" fill="white"/>
<path d="M5.57228 113.264L5.57228 102.648C4.77963 102.842 4.14077 103.294 3.67938 104.004C3.21798 104.715 2.98137 105.606 2.98137 106.665C2.98137 107.401 3.07602 108.047 3.27714 108.602C3.47826 109.17 3.78585 109.687 4.22359 110.178L2.07041 112.347C0.686229 111.03 -0.0117764 109.093 -0.0117763 106.561C-0.0117763 104.973 0.272158 103.578 0.840029 102.364C1.4079 101.15 2.18872 100.207 3.19432 99.5488C4.19993 98.8901 5.33567 98.5544 6.61338 98.5544C7.86742 98.5544 9.00316 98.8772 10.0206 99.5359C11.038 100.182 11.8189 101.086 12.3867 102.222C12.9546 103.359 13.2385 104.637 13.2385 106.045C13.2385 107.414 12.9664 108.667 12.4222 109.777C11.878 110.888 11.109 111.766 10.0916 112.399C9.07414 113.032 7.90291 113.355 6.56605 113.355C6.53056 113.342 6.18747 113.316 5.57228 113.264ZM9.70117 103.746C9.22794 103.126 8.56543 102.739 7.73728 102.597L7.73728 109.506C8.5536 109.364 9.20428 108.989 9.68934 108.357C10.1744 107.737 10.4228 106.962 10.4228 106.058C10.4228 105.141 10.1862 104.366 9.70117 103.746Z" fill="white"/>
<path d="M17.9235 116.054L17.9235 120.122L0.189348 120.122L0.189348 116.054L17.9235 116.054Z" fill="white"/>
<path d="M15.439 124.112C15.8412 123.647 16.3263 123.402 16.9178 123.402C17.5093 123.402 18.0062 123.635 18.3966 124.112C18.7989 124.577 19 125.184 19 125.933C19 126.682 18.8107 127.289 18.4321 127.754C18.0535 128.219 17.5685 128.465 17.0006 128.465C16.3736 128.465 15.8649 128.232 15.4626 127.754C15.0604 127.289 14.8475 126.67 14.8475 125.933C14.8475 125.197 15.0367 124.59 15.439 124.112ZM13.0492 123.906L13.0492 127.974L0.189302 127.974L0.189302 123.906L13.0492 123.906Z" fill="white"/>
<path d="M5.2292 137.789L3.46643 135.826L0.18935 135.826L0.18935 131.758L17.9235 131.758L17.9235 135.826L7.89109 135.826L13.0492 141.78L13.0492 146.636L7.59532 140.798L0.189349 147.165L0.18935 142.232L5.2292 137.789Z" fill="white"/>
<path d="M0.851864 151.078C1.41973 149.903 2.20056 148.986 3.20616 148.328C4.21176 147.669 5.3475 147.333 6.62521 147.333C7.90292 147.333 9.03866 147.669 10.0443 148.328C11.0499 148.986 11.8307 149.903 12.3986 151.078C12.9664 152.254 13.2504 153.584 13.2504 155.056C13.2504 156.528 12.9664 157.859 12.3986 159.021C11.8307 160.183 11.0499 161.1 10.0443 161.759C9.03866 162.418 7.90292 162.753 6.62521 162.753C5.3475 162.753 4.21176 162.418 3.20616 161.759C2.20056 161.1 1.41973 160.183 0.851863 159.021C0.283993 157.859 5.68185e-05 156.528 5.68829e-05 155.056C5.69478e-05 153.571 0.283994 152.254 0.851864 151.078ZM4.02247 157.626C4.67316 158.298 5.53679 158.634 6.61338 158.634C7.7018 158.634 8.56543 158.298 9.20429 157.626C9.85497 156.955 10.1744 156.102 10.1744 155.056C10.1744 154.01 9.85497 153.158 9.20429 152.473C8.5536 151.789 7.68997 151.453 6.61338 151.453C5.52496 151.453 4.66133 151.789 4.02247 152.473C3.38362 153.158 3.05236 154.01 3.05236 155.056C3.05236 156.102 3.38362 156.955 4.02247 157.626Z" fill="white"/>
<path d="M13.0492 179L0.189298 173.085L0.189298 168.888L13.0492 162.986L13.0492 167.183L4.30636 171.07L13.0492 175.087L13.0492 179Z" fill="white"/>
</svg>
