<svg width="147" height="13" viewBox="0 0 147 13" fill="none" xmlns="http://www.w3.org/2000/svg">
<path d="M0 2.29529L5.41694 2.29529C6.71634 2.29529 7.85541 2.51219 8.85105 2.95347C9.84669 3.39475 10.6145 4.00805 11.1714 4.80086C11.7198 5.59367 11.9983 6.5211 11.9983 7.58317C11.9983 8.63775 11.7198 9.56519 11.1714 10.3655C10.6229 11.1583 9.84669 11.7791 8.85105 12.2129C7.86385 12.6467 6.71634 12.871 5.41694 12.871H0L0 2.29529ZM5.28194 10.8591C6.47165 10.8591 7.4251 10.5674 8.13385 9.97655C8.84261 9.38568 9.19699 8.59288 9.19699 7.58317C9.19699 6.57346 8.84261 5.78065 8.13385 5.18979C7.4251 4.59892 6.48008 4.29975 5.28194 4.29975L2.7591 4.29975L2.7591 10.8591H5.28194Z" fill="#0095E5"/>
<path d="M17.7189 4.92045C18.2589 4.71851 18.8833 4.62128 19.5836 4.62128V6.79776C19.2883 6.77533 19.0858 6.76785 18.9845 6.76785C18.2251 6.76785 17.626 6.95483 17.1957 7.33628C16.7654 7.71772 16.546 8.27867 16.546 9.03409V12.871H13.8882L13.8882 4.74095H16.4279V5.81049C16.7485 5.42157 17.1789 5.12239 17.7189 4.92045Z" fill="#0095E5"/>
<path d="M20.8999 12.5644C20.5793 12.2802 20.4189 11.9287 20.4189 11.5098C20.4189 11.076 20.5793 10.7245 20.8999 10.4627C21.2205 10.1935 21.6086 10.0588 22.0727 10.0588C22.5368 10.0588 22.9333 10.1935 23.2455 10.4627C23.5662 10.732 23.7265 11.0835 23.7265 11.5098C23.7265 11.9362 23.5662 12.2877 23.2455 12.5644C22.9249 12.8486 22.5368 12.9907 22.0727 12.9907C21.6086 12.9907 21.2121 12.8486 20.8999 12.5644Z" fill="#0095E5"/>
<path d="M39.7834 10.904V12.871L30.5442 12.871L30.5442 2.29529L39.564 2.29529V4.26235L33.2948 4.26235V6.5585L38.8299 6.5585V8.45825H33.2948V10.904L39.7834 10.904Z" fill="#0095E5"/>
<path d="M41.7915 1.65948L44.4493 1.65948V12.871H41.7915V1.65948Z" fill="#0095E5"/>
<path d="M56.0258 4.74103L52.1529 12.871L49.4107 12.871L45.5547 4.74103H48.2969L50.8366 10.2682L53.4607 4.74103L56.0258 4.74103Z" fill="#0095E5"/>
<path d="M57.2492 3.23016C56.9455 2.97586 56.7852 2.66921 56.7852 2.29524C56.7852 1.92128 56.937 1.60714 57.2492 1.36033C57.553 1.10603 57.9495 0.978882 58.4389 0.978882C58.9283 0.978882 59.3249 1.09855 59.6286 1.33789C59.9324 1.57723 60.0927 1.88388 60.0927 2.24289C60.0927 2.63929 59.9408 2.9609 59.6286 3.2152C59.3249 3.4695 58.9199 3.60412 58.4389 3.60412C57.958 3.60412 57.553 3.48445 57.2492 3.23016ZM57.1142 4.74098H59.7721V12.871H57.1142V4.74098Z" fill="#0095E5"/>
<path d="M70.5722 5.52628C71.2725 6.1321 71.6185 7.02962 71.6185 8.21884V12.871H68.9606V8.57785C68.9606 7.93462 68.8003 7.45595 68.4797 7.13433C68.159 6.8202 67.7034 6.65566 67.0959 6.65566C66.4293 6.65566 65.8893 6.84264 65.4928 7.20913C65.0962 7.57562 64.8937 8.12161 64.8937 8.8471V12.871H62.2358V4.74095H64.7756V5.69082C65.1299 5.34677 65.5687 5.085 66.0918 4.89801C66.615 4.71103 67.1887 4.62128 67.8131 4.62128C68.9522 4.62128 69.8719 4.92045 70.5722 5.52628Z" fill="#0095E5"/>
<path d="M89.8859 12.871L89.869 6.52858L86.359 11.7566L85.1187 11.7566L81.6255 6.66321V12.871H79.0352V2.29529L81.3217 2.29529L85.7852 8.86961L90.1812 2.29529L92.4509 2.29529L92.4763 12.871H89.8859Z" fill="#0095E5"/>
<path d="M104.053 9.46791H97.1169C97.2434 9.96903 97.5387 10.3729 98.0028 10.6646C98.4669 10.9563 99.0491 11.1059 99.7409 11.1059C100.222 11.1059 100.644 11.0461 101.007 10.9189C101.378 10.7918 101.715 10.5973 102.036 10.3206L103.453 11.6818C102.593 12.5569 101.327 12.9982 99.6734 12.9982C98.6356 12.9982 97.7244 12.8187 96.9312 12.4597C96.1381 12.1006 95.5221 11.607 95.0918 10.9713C94.6615 10.3355 94.4421 9.61749 94.4421 8.80972C94.4421 8.01691 94.6531 7.29889 95.0834 6.65567C95.5053 6.01244 96.0959 5.5188 96.8384 5.15979C97.5809 4.80078 98.4162 4.62128 99.3359 4.62128C100.23 4.62128 101.049 4.7933 101.774 5.13735C102.5 5.4814 103.074 5.96756 103.487 6.61079C103.901 7.25401 104.112 7.99447 104.112 8.83964C104.103 8.86208 104.086 9.07898 104.053 9.46791ZM97.834 6.85761C97.429 7.15678 97.1759 7.57563 97.0831 8.09918H101.597C101.504 7.58311 101.26 7.17174 100.846 6.86509C100.441 6.55843 99.935 6.40137 99.3444 6.40137C98.7453 6.40137 98.2391 6.55095 97.834 6.85761Z" fill="#0095E5"/>
<path d="M105.875 1.65948L108.533 1.65948V12.871H105.875V1.65948Z" fill="#0095E5"/>
<path d="M111.14 3.23016C110.836 2.97586 110.676 2.66921 110.676 2.29524C110.676 1.92128 110.828 1.60714 111.14 1.36033C111.444 1.10603 111.84 0.978882 112.33 0.978882C112.819 0.978882 113.216 1.09855 113.52 1.33789C113.823 1.57723 113.984 1.88388 113.984 2.24289C113.984 2.63929 113.832 2.9609 113.52 3.2152C113.216 3.4695 112.811 3.60412 112.33 3.60412C111.849 3.60412 111.452 3.48445 111.14 3.23016ZM111.005 4.74098H113.663V12.871H111.005V4.74098Z" fill="#0095E5"/>
<path d="M120.076 9.68481L118.793 10.7992V12.871H116.135V1.65948L118.793 1.65948V8.00196L122.683 4.74097L125.855 4.74097L122.042 8.18894L126.201 12.871H122.978L120.076 9.68481Z" fill="#0095E5"/>
<path d="M128.758 12.4522C127.99 12.0932 127.391 11.5996 126.961 10.9638C126.53 10.3281 126.311 9.61006 126.311 8.80228C126.311 7.99451 126.53 7.27649 126.961 6.64074C127.391 6.005 127.99 5.51136 128.758 5.15235C129.526 4.79334 130.395 4.61383 131.357 4.61383C132.319 4.61383 133.188 4.79334 133.947 5.15235C134.706 5.51136 135.306 6.005 135.736 6.64074C136.166 7.27649 136.386 7.99451 136.386 8.80228C136.386 9.61006 136.166 10.3281 135.736 10.9638C135.306 11.5996 134.706 12.0932 133.947 12.4522C133.188 12.8112 132.319 12.9907 131.357 12.9907C130.386 12.9907 129.526 12.8112 128.758 12.4522ZM133.036 10.4477C133.475 10.0364 133.694 9.49039 133.694 8.80976C133.694 8.12166 133.475 7.57567 133.036 7.17178C132.597 6.76041 132.04 6.55847 131.357 6.55847C130.673 6.55847 130.116 6.76041 129.669 7.17178C129.222 7.58315 129.003 8.12914 129.003 8.80976C129.003 9.49787 129.222 10.0439 129.669 10.4477C130.116 10.8516 130.673 11.0611 131.357 11.0611C132.04 11.0611 132.597 10.8516 133.036 10.4477Z" fill="#0095E5"/>
<path d="M147 4.74103L143.136 12.871L140.393 12.871L136.537 4.74103H139.28L141.819 10.2682L144.443 4.74103L147 4.74103Z" fill="#0095E5"/>
</svg>
