<svg viewBox="0 0 22 21" xmlns="http://www.w3.org/2000/svg">
<path d="M19.6429 0H2.35714C1.0558 0 0 1.00781 0 2.25V18.75C0 19.9922 1.0558 21 2.35714 21H19.6429C20.9442 21 22 19.9922 22 18.75V2.25C22 1.00781 20.9442 0 19.6429 0ZM18.0714 11.8125C18.0714 12.1219 17.8062 12.375 17.4821 12.375H12.9643V16.6875C12.9643 16.9969 12.6991 17.25 12.375 17.25H9.625C9.30089 17.25 9.03571 16.9969 9.03571 16.6875V12.375H4.51786C4.19375 12.375 3.92857 12.1219 3.92857 11.8125V9.1875C3.92857 8.87813 4.19375 8.625 4.51786 8.625H9.03571V4.3125C9.03571 4.00313 9.30089 3.75 9.625 3.75H12.375C12.6991 3.75 12.9643 4.00313 12.9643 4.3125V8.625H17.4821C17.8062 8.625 18.0714 8.87813 18.0714 9.1875V11.8125Z"/>
</svg>
