<svg width="53" height="40" viewBox="0 0 53 40" fill="none" xmlns="http://www.w3.org/2000/svg">
<g clip-path="url(#clip0)">
<path fill-rule="evenodd" clip-rule="evenodd" d="M11.1269 35.1357C10.474 35.3614 10.2852 35.609 10.2609 36.4683C10.2488 36.938 10.2211 38.3324 10.2956 38.7238C10.519 39.8416 12.4986 39.8798 13.4928 39.5704C14.1319 39.3701 14.2566 39.0861 14.2687 38.2578C14.2808 37.6461 14.2687 37.0982 14.2808 36.6376C14.2808 35.7273 14.0851 35.1685 13.1412 35.0574C12.5471 34.9828 11.6534 34.9555 11.1252 35.1357H11.1269ZM13.5032 38.4489V36.3955C13.5187 35.8184 12.7013 35.893 12.2908 35.893C11.8405 35.893 11.0542 35.8439 11.0542 36.3955V38.4489C11.0542 38.7366 11.4006 38.844 11.7937 38.8731C12.1543 38.8863 12.5152 38.8754 12.8745 38.8403C13.2416 38.8112 13.4806 38.7038 13.4962 38.4453L13.5032 38.4489Z" fill="#EC2327"/>
<path fill-rule="evenodd" clip-rule="evenodd" d="M6.19744 35.0186C7.15349 35.0186 8.22842 34.95 8.81917 35.0762C9.40995 35.2023 9.71933 35.592 9.71933 36.3749C9.71933 37.6737 9.3278 38.0447 8.45913 38.1394C8.43412 38.1414 8.40898 38.1414 8.38397 38.1394C7.8701 38.1858 7.19196 38.1394 6.33376 38.1394V39.3027C6.33376 39.4178 6.29068 39.5283 6.21398 39.6097C6.13727 39.6911 6.03324 39.7368 5.92478 39.7368C5.81631 39.7368 5.71228 39.6911 5.63556 39.6097C5.55887 39.5283 5.51578 39.4178 5.51578 39.3027V38.5605C5.50005 38.0151 5.51578 37.3694 5.51578 36.8295C5.51578 36.3898 5.53151 35.9185 5.51578 35.4788C5.5086 35.4281 5.5109 35.3764 5.52257 35.3266C5.53423 35.2769 5.55504 35.2301 5.58379 35.1889C5.61251 35.1477 5.64864 35.1129 5.69004 35.0866C5.73146 35.0602 5.77739 35.0428 5.82516 35.0353C5.94783 35.0167 6.07196 35.0111 6.19569 35.0186H6.19744ZM8.40144 35.8944H6.33551V37.2822H8.15325C8.67761 37.2822 8.94677 37.2451 8.96949 36.6105C8.99222 35.976 8.81568 35.9074 8.40144 35.8944Z" fill="#EC2327"/>
<path d="M4.98243 39.3005V37.4745V36.6634C4.98588 35.7387 4.78214 35.1713 3.83769 35.0578C3.24549 34.9852 2.34765 34.9517 1.81759 35.1378C1.16839 35.3648 0.978466 35.6159 0.954294 36.4903C0.954294 36.8271 0.938755 37.6308 0.954294 38.215V39.2959C0.95452 39.3531 0.965195 39.4096 0.985708 39.4624C1.00622 39.5151 1.03617 39.563 1.07385 39.6032C1.11153 39.6435 1.15619 39.6753 1.2053 39.697C1.2544 39.7186 1.30699 39.7296 1.36004 39.7294C1.46706 39.7294 1.56974 39.6839 1.64574 39.6027C1.72173 39.5215 1.76488 39.4112 1.76579 39.2959V37.5415V37.508V36.4159C1.76579 35.8559 2.55484 35.9061 3.00721 35.9061C3.40951 35.9061 4.20547 35.8317 4.18992 36.4159V38.9871V39.3034C4.19016 39.3605 4.20083 39.4171 4.22134 39.4698C4.24185 39.5225 4.27181 39.5704 4.30948 39.6106C4.34715 39.6509 4.39183 39.6828 4.44093 39.7044C4.49003 39.7261 4.54262 39.7371 4.59569 39.7368C4.70237 39.7368 4.8047 39.6912 4.88014 39.6099C4.95559 39.5286 4.98243 39.4155 4.98243 39.3005Z" fill="#EC2327"/>
<path fill-rule="evenodd" clip-rule="evenodd" d="M14.8071 39.3022C14.8076 39.186 14.8509 39.0748 14.9275 38.9927C15.0042 38.9106 15.108 38.8642 15.2165 38.8637H15.4882L17.2597 35.237C17.298 35.1592 17.357 35.0953 17.4292 35.0534C17.5015 35.0116 17.5837 34.9937 17.6655 35.002C17.7466 34.9941 17.8279 35.0122 17.8993 35.0541C17.9707 35.096 18.0287 35.1597 18.0661 35.237L19.8376 38.8637H20.0118C20.1202 38.8642 20.2241 38.9106 20.3008 38.9927C20.3774 39.0748 20.4207 39.186 20.4212 39.3022C20.4209 39.3595 20.4102 39.4162 20.3895 39.4691C20.3688 39.522 20.3386 39.5699 20.3005 39.6103C20.2625 39.6507 20.2175 39.6826 20.1679 39.7043C20.1184 39.726 20.0653 39.7371 20.0118 39.7368H15.2165C15.1629 39.7371 15.1099 39.726 15.0603 39.7043C15.0108 39.6826 14.9658 39.6507 14.9277 39.6103C14.8897 39.5699 14.8595 39.522 14.8388 39.4691C14.8181 39.4162 14.8073 39.3595 14.8071 39.3022ZM17.6655 36.2967L16.4096 38.8637H18.9162L17.6655 36.2967Z" fill="#117DC1"/>
<path fill-rule="evenodd" clip-rule="evenodd" d="M25.9604 35.0165C26.0193 35.0168 26.0779 35.0282 26.1322 35.0503C26.1868 35.0723 26.2362 35.1045 26.2776 35.1449C26.3193 35.1854 26.3522 35.2333 26.3746 35.2861C26.3969 35.3388 26.4084 35.3953 26.408 35.4522V36.7316L28.831 35.0796C28.9288 35.0136 29.0494 34.9872 29.1673 35.0059C29.2849 35.0246 29.3904 35.087 29.4612 35.1797C29.4954 35.2265 29.5198 35.2794 29.5329 35.3354C29.546 35.3913 29.5473 35.4492 29.5372 35.5057C29.5271 35.5622 29.5055 35.6162 29.4735 35.6646C29.4418 35.713 29.4003 35.7549 29.3517 35.7878L27.046 37.3675L29.3517 38.9473C29.4495 39.0141 29.516 39.1156 29.5364 39.2295C29.5571 39.3435 29.5299 39.4606 29.4612 39.5554C29.3906 39.6483 29.2855 39.7111 29.1678 39.7305C29.0502 39.7499 28.9294 39.7243 28.831 39.6592L26.408 38.0054V39.3032C26.408 39.3599 26.3965 39.416 26.3739 39.4683C26.3514 39.5206 26.3183 39.5681 26.2768 39.6081C26.2352 39.648 26.1858 39.6797 26.1316 39.7012C26.0773 39.7227 26.0191 39.7336 25.9604 39.7334C25.8416 39.7334 25.7275 39.6883 25.643 39.6077C25.5585 39.5272 25.5103 39.4178 25.5089 39.3032V35.4522C25.5099 35.337 25.5577 35.2267 25.6422 35.1452C25.7267 35.0637 25.841 35.0175 25.9604 35.0165Z" fill="#117DC1"/>
<path fill-rule="evenodd" clip-rule="evenodd" d="M32.5232 35.8728V39.3042C32.5222 39.419 32.4762 39.5287 32.395 39.6097C32.3139 39.6907 32.2042 39.7363 32.0895 39.7368C32.0328 39.7371 31.9762 39.7261 31.9237 39.7044C31.8711 39.6828 31.8233 39.651 31.783 39.6108C31.7427 39.5706 31.7108 39.5228 31.689 39.4702C31.6672 39.4176 31.6558 39.3611 31.6558 39.3042V35.8728H30.5076C30.3922 35.8728 30.2815 35.8271 30.1995 35.7457C30.1176 35.6644 30.0712 35.5538 30.0702 35.4383C30.0712 35.3223 30.1174 35.2114 30.1993 35.1294C30.2811 35.0475 30.3918 35.001 30.5076 35H33.6716C33.7287 35.0002 33.7853 35.0118 33.838 35.0339C33.8908 35.0561 33.9386 35.0884 33.9789 35.1291C34.0192 35.1698 34.0511 35.2181 34.0727 35.2711C34.0945 35.3241 34.1054 35.3809 34.1053 35.4383C34.1053 35.5535 34.0596 35.664 33.9783 35.7455C33.897 35.827 33.7867 35.8728 33.6716 35.8728H32.5232Z" fill="#117DC1"/>
<path fill-rule="evenodd" clip-rule="evenodd" d="M49.3656 36.9022H51.0177C51.6011 36.9022 51.8225 36.9227 51.8225 36.4052C51.8225 36.033 51.689 35.8748 51.0177 35.8748H49.3656V36.9022ZM49.3656 38.8658H51.449C51.7499 38.7988 51.8225 38.6424 51.8225 38.3688C51.8225 37.8514 51.6011 37.8737 51.0177 37.8737H49.3656V38.8695V38.8658ZM51.4879 39.7368C50.6237 39.7368 49.7528 39.7368 48.8887 39.7368C48.7841 39.7373 48.6836 39.6922 48.609 39.6113C48.5346 39.5303 48.4923 39.4202 48.4913 39.305V35.4374C48.4917 35.3219 48.5336 35.2112 48.6076 35.1293C48.6818 35.0474 48.7822 35.001 48.8871 35C49.6209 35 50.3886 35 51.1107 35C51.8329 35 52.5244 35.3071 52.5244 36.2321C52.5359 36.5341 52.4988 36.836 52.4145 37.1237C52.3966 37.1736 52.3744 37.2216 52.3484 37.267C52.3284 37.3085 52.3195 37.3555 52.3232 37.4024C52.3268 37.4493 52.3427 37.4941 52.3689 37.5313C52.3905 37.579 52.4097 37.6281 52.4262 37.6783C52.501 37.9553 52.5341 38.2439 52.5244 38.5326C52.5186 38.8391 52.4089 39.1321 52.2167 39.3539C52.0247 39.5758 51.764 39.7104 51.4861 39.7313L51.4879 39.7368Z" fill="#117DC1"/>
<path fill-rule="evenodd" clip-rule="evenodd" d="M21.8285 35.1357C21.1757 35.3614 20.9868 35.609 20.9626 36.4683C20.9505 36.938 20.9227 38.3324 20.9973 38.7238C21.2207 39.8416 23.2021 39.8798 24.1962 39.5704C24.8336 39.3701 24.9582 39.0861 24.9703 38.2578C24.9826 37.6461 24.9703 37.0982 24.9826 36.6376C24.9826 35.7273 24.7868 35.1685 23.8429 35.0574C23.2487 34.9828 22.355 34.9555 21.8269 35.1357H21.8285ZM24.2049 38.4489V36.3955C24.2204 35.8184 23.4029 35.893 22.9924 35.893C22.5421 35.893 21.7559 35.8439 21.7559 36.3955V38.4489C21.7559 38.7366 22.1023 38.844 22.4955 38.8731C22.8559 38.8862 23.217 38.8753 23.5761 38.8403C23.9433 38.8112 24.1823 38.7038 24.198 38.4453L24.2049 38.4489Z" fill="#117DC1"/>
<path fill-rule="evenodd" clip-rule="evenodd" d="M35.5134 35.1357C34.8625 35.3614 34.6699 35.609 34.6457 36.4683C34.6336 36.938 34.6074 38.3324 34.6856 38.7238C34.9042 39.8416 36.893 39.8798 37.8855 39.5704C38.524 39.3701 38.6508 39.0861 38.6665 38.2578C38.6665 37.6461 38.6665 37.0982 38.6665 36.6376C38.675 35.7273 38.4703 35.1685 37.5264 35.0574C36.9328 34.9828 36.0391 34.9555 35.5065 35.1357H35.5134ZM37.8908 38.4489V36.3955C37.9063 35.8184 37.0856 35.893 36.6759 35.893C36.2266 35.893 35.437 35.8439 35.437 36.3955V38.4489C35.437 38.7366 35.784 38.844 36.1832 38.8731C36.5426 38.8862 36.9027 38.8753 37.2608 38.8403C37.6305 38.8112 37.8682 38.7038 37.8855 38.4453L37.8908 38.4489Z" fill="#117DC1"/>
<path fill-rule="evenodd" clip-rule="evenodd" d="M44.8099 35.1357C44.1551 35.3614 43.9678 35.609 43.9436 36.4683C43.9333 36.938 43.9055 38.3324 43.9801 38.7238C44.2035 39.8416 46.1839 39.8798 47.1784 39.5704C47.8178 39.3701 47.9426 39.0861 47.9547 38.2578C47.965 37.6461 47.9547 37.0982 47.965 36.6376C47.965 35.7273 47.7692 35.1685 46.8267 35.0574C46.2307 34.9828 45.3384 34.9555 44.8099 35.1357ZM47.1941 38.4489V36.3955C47.2096 35.8184 46.39 35.893 45.9812 35.893C45.5307 35.893 44.7423 35.8439 44.7423 36.3955V38.4489C44.7423 38.7366 45.0889 38.844 45.4838 38.8731C45.8441 38.8863 46.2046 38.8754 46.5634 38.8403C46.9324 38.8112 47.1715 38.7038 47.1871 38.4453L47.1941 38.4489Z" fill="#117DC1"/>
<path fill-rule="evenodd" clip-rule="evenodd" d="M39.9357 35.014C40.894 35.014 41.909 34.9546 42.4989 35.0808C43.0891 35.207 43.4036 35.5969 43.4036 36.3803C43.4036 37.6799 43.0123 38.0512 42.1446 38.1477C42.1196 38.1496 42.0944 38.1496 42.0694 38.1477C41.5457 38.1941 40.8734 38.157 40.0214 38.157V39.3024C40.0214 39.4176 39.9783 39.5281 39.9017 39.6096C39.8252 39.6911 39.7212 39.7368 39.6129 39.7368C39.5046 39.7368 39.4006 39.6911 39.3241 39.6096C39.2473 39.5281 39.2042 39.4176 39.2042 39.3024V38.5598C39.1852 38.014 39.1939 37.368 39.2042 36.8259C39.2042 36.3859 39.2165 35.9162 39.2042 35.4762C39.1898 35.3736 39.2142 35.269 39.2721 35.1855C39.33 35.1019 39.4169 35.0462 39.5133 35.0307C39.6347 35.013 39.7575 35.0074 39.8799 35.014L39.9357 35.014ZM42.073 35.8976H40.0198V37.2863H41.832C42.3559 37.2863 42.6283 37.2492 42.6527 36.6161C42.6771 35.983 42.4974 35.9106 42.0712 35.8976H42.073Z" fill="#117DC1"/>
</g>
<g clip-path="url(#clip1)">
<path d="M22.5984 16.7235C22.4769 16.6592 22.3412 16.6878 22.2126 16.6878C19.8692 16.6878 17.5257 16.6949 15.1752 16.6806C14.868 16.6806 14.8037 16.7735 14.8108 17.0591C14.8322 17.9017 14.818 18.7515 14.818 19.5941C14.818 19.9655 14.7537 20.3297 14.5465 20.6439C14.3178 20.9938 13.9963 21.1937 13.5677 21.1866C13.3319 21.1794 13.089 21.1652 12.8532 21.1866C12.0173 21.2651 11.4957 20.5296 11.4814 19.8298C11.4743 19.3799 11.4814 18.9229 11.4814 18.473C11.4814 14.0456 11.4814 9.62536 11.4814 5.19796C11.4814 2.62721 12.7746 1.02763 15.2824 0.484918C15.9325 0.342099 16.5969 0.27783 17.2614 0.270689C19.0618 0.263548 20.8551 0.249266 22.6555 0.27783C23.9344 0.292112 25.1847 0.513482 26.3278 1.14189C27.7996 1.94168 28.5712 3.21991 28.607 4.87661C28.657 7.24027 28.6212 9.61107 28.6212 11.9747C28.6212 12.0676 28.6284 12.1675 28.6284 12.2604C28.607 12.3318 28.5855 12.396 28.5712 12.4675C28.214 14.7097 27.0351 15.9594 24.7989 16.4878C24.063 16.6521 23.3343 16.6663 22.5984 16.7235ZM19.1261 13.0459C19.6048 13.0459 20.0763 13.0602 20.555 13.0459C21.5838 13.0173 22.6198 13.1316 23.6486 12.9745C24.6346 12.8316 25.2919 12.3746 25.2704 11.1678C25.2276 9.26831 25.2633 7.36167 25.2562 5.46217C25.2562 4.76236 24.9632 4.35532 24.2988 4.12681C23.7272 3.92686 23.1271 3.91972 22.5412 3.91258C20.8408 3.88402 19.1404 3.88402 17.44 3.91258C16.7684 3.91972 16.0897 4.01256 15.4824 4.34104C15.0537 4.56955 14.818 4.91232 14.818 5.42647C14.8322 7.86154 14.8251 10.2966 14.818 12.7388C14.818 12.9888 14.8751 13.053 15.1252 13.053C16.4612 13.0387 17.7901 13.0459 19.1261 13.0459Z" fill="#FE0101"/>
<path d="M22.5978 16.7239C23.3265 16.6739 24.0624 16.6596 24.784 16.4882C27.0203 15.9598 28.1991 14.7101 28.5563 12.4678C28.5706 12.3964 28.5921 12.3322 28.6135 12.2608C31.1355 12.2608 33.6575 12.2536 36.1796 12.2679C36.4796 12.2679 36.5511 12.1751 36.5511 11.8894C36.5297 11.0325 36.5439 10.1756 36.5439 9.31868C36.5511 8.36179 37.0798 7.8405 38.03 7.8405C38.2944 7.8405 38.5587 7.81908 38.8088 7.86906C39.4518 7.9976 39.8805 8.58316 39.8876 9.31868C39.8947 14.1246 39.909 18.9304 39.8733 23.7292C39.8662 25.0717 39.1803 26.1499 38.1729 27.0211C36.8226 28.1851 35.2079 28.635 33.4646 28.6636C31.7785 28.6921 30.0853 28.6993 28.3992 28.6564C27.1631 28.6279 25.9414 28.4279 24.8269 27.8352C23.3551 27.0568 22.5621 25.8357 22.5406 24.1648C22.5192 21.8582 22.5335 19.5517 22.5406 17.2452C22.5478 17.0738 22.5835 16.8952 22.5978 16.7239ZM32.4144 15.8955C31.1784 15.8955 29.9424 15.8812 28.7064 15.9027C28.0634 15.9098 27.4346 16.0026 26.8345 16.2526C26.2772 16.4811 25.9128 16.8738 25.9057 17.4879C25.8914 19.4517 25.8914 21.4083 25.9057 23.3721C25.9128 24.2005 26.4201 24.7432 27.2346 24.9003C27.9276 25.0288 28.6349 25.0002 29.3279 25.0217C30.6568 25.0717 31.9929 25.0574 33.3218 25.0217C34.1148 25.0002 34.9078 24.9003 35.6509 24.5861C36.2153 24.3504 36.5511 23.9434 36.5439 23.3078C36.5439 20.9442 36.5368 18.5734 36.5511 16.2097C36.5511 15.9169 36.4439 15.8884 36.201 15.8884C34.9364 15.9027 33.679 15.8955 32.4144 15.8955Z" fill="#0292FE"/>
<path d="M20.0329 5.98441C21.1831 5.913 22.4477 6.72707 22.6406 7.88391C22.7907 8.79795 22.3977 9.4692 21.6832 9.99049C20.6187 10.7689 18.9755 10.6332 18.0467 9.69771C17.0679 8.7194 17.2465 7.19837 18.411 6.44857C18.9183 6.12723 19.4541 5.93442 20.0329 5.98441Z" fill="#FE0101"/>
<path d="M31.1069 22.9656C30.1781 22.9442 29.4279 22.5586 28.892 21.8088C28.2276 20.8733 28.5277 19.6165 29.5565 18.881C30.7425 18.0383 32.5072 18.3383 33.3145 19.5451C34.029 20.6234 33.6718 21.8088 32.5572 22.5443C32.1214 22.8299 31.6356 22.9727 31.1069 22.9656Z" fill="#0292FE"/>
</g>
<defs>
<clipPath id="clip0">
<rect width="51.5789" height="4.73684" fill="white" transform="translate(0.947388 35)"/>
</clipPath>
<clipPath id="clip1">
<rect width="28.421" height="28.421" fill="white" transform="translate(11.4738 0.263672)"/>
</clipPath>
</defs>
</svg>
