<svg width="36" height="30" viewBox="0 0 36 30" fill="none" xmlns="http://www.w3.org/2000/svg">
<path d="M36 3.87936C33.7354 3.98225 33.7849 3.97386 33.5289 3.99498L34.8701 0.219031C34.8701 0.219031 30.6837 1.73726 29.6224 2.00885C26.8352 -0.460883 22.6923 -0.570005 19.7303 1.22469C17.3048 2.69472 16.003 5.21915 16.4372 8.16977C11.7166 7.52398 7.73932 5.31798 4.59915 1.59917L3.60599 0.423195L2.86386 1.76678C1.9259 3.46453 1.61444 5.40571 1.9866 7.23262C2.13931 7.98213 2.39886 8.69697 2.75839 9.36632L1.9064 9.04085L1.80533 10.4443C1.70288 11.8699 2.18436 13.5341 3.09348 14.8955C3.34946 15.2789 3.67905 15.7 4.0968 16.1154L3.65652 16.0488L4.19376 17.6569C4.8999 19.7697 6.36658 21.4044 8.26996 22.3131C6.36905 23.1084 4.83344 23.6158 2.30933 24.4344L0 25.1828L2.133 26.3325C2.94626 26.7709 5.82001 28.235 8.65942 28.6741C14.9711 29.65 22.0773 28.8553 26.8613 24.6077C30.8908 21.0299 32.213 15.9407 31.9384 10.6446C31.8969 9.84289 32.1196 9.07768 32.5657 8.49037C33.4591 7.3144 35.9945 3.88721 36 3.87936ZM30.879 7.24481C30.1382 8.21987 29.7672 9.46516 29.8336 10.7508C30.1108 16.0929 28.6364 20.2357 25.4512 23.0637C21.7304 26.3674 15.7289 27.6642 8.98599 26.6214C7.76486 26.4327 6.50281 26.01 5.45828 25.5879C7.57452 24.87 9.20874 24.2302 11.8479 22.9987L15.5322 21.2796L11.4645 21.0229C9.51608 20.9 7.89368 19.969 6.89639 18.4576C7.42593 18.4272 7.93652 18.3428 8.44492 18.203L12.3245 17.1378L8.41251 16.1934C6.5116 15.7344 5.42807 14.6131 4.85376 13.7531C4.47665 13.188 4.23029 12.6091 4.08252 12.0754C4.47473 12.1791 4.93204 12.253 5.66949 12.3251L9.29031 12.6782L6.42151 10.4719C4.35443 8.88245 3.52606 6.49449 4.13333 4.19887C10.5845 10.7955 18.159 10.2997 18.9215 10.4741C18.7537 8.86702 18.7493 8.86323 18.7053 8.71024C17.7289 5.30742 19.8688 3.57961 20.8339 2.99474C22.8499 1.77327 26.05 1.58915 28.2664 3.60154C28.7452 4.03586 29.3925 4.20672 29.9984 4.05834C30.5423 3.92512 30.9886 3.78404 31.4256 3.63051L30.5159 6.1915L31.6772 6.19231C31.458 6.48204 31.1951 6.8289 30.879 7.24481Z" fill="white"/>
</svg>
