<svg width="31" height="32" viewBox="0 0 31 32" fill="none" xmlns="http://www.w3.org/2000/svg">
<path d="M27.3268 3.3196C28.727 4.50924 29.7141 6.3771 30.3109 8.93428C30.9077 11.4915 30.9651 14.6601 30.4945 18.4181C30.3797 19.2964 30.1846 20.1636 29.8977 20.9975C29.6567 21.698 29.3583 22.365 28.9795 22.9988C28.6467 23.5436 28.245 24.0439 27.7974 24.4997C27.4186 24.9 26.994 25.2558 26.5349 25.5782C26.1217 25.845 25.6856 26.0896 25.2379 26.2898C24.7674 26.501 24.3886 26.6455 24.1017 26.7456C23.7803 26.8568 23.4475 26.9457 23.1147 27.0236C22.9195 27.0792 22.713 27.1125 22.5064 27.1459C22.208 27.2682 21.703 27.3905 20.9799 27.5128C20.2568 27.6351 19.1206 27.7685 17.5597 27.913C15.9988 28.0576 14.4264 28.0464 12.8655 27.8797C11.9817 28.8247 11.339 29.5029 10.9603 29.9032C10.834 30.0255 10.6619 30.2034 10.4553 30.4257C10.2487 30.6481 10.0995 30.8037 10.0077 30.8816C9.91584 30.9594 9.78959 31.0928 9.59448 31.2818C9.39937 31.4708 9.27312 31.5598 9.1813 31.5598C9.03209 31.582 8.88289 31.6154 8.73369 31.6821C8.5271 31.7599 8.37789 31.7377 8.28607 31.6265C8.11392 31.582 7.96471 31.5042 7.83846 31.3819C7.72369 31.2707 7.63187 31.1373 7.58596 30.9816C7.54005 30.8371 7.5171 30.6926 7.49414 30.548C7.47119 30.4368 7.45971 30.3257 7.45971 30.2145L7.39085 30.0922L7.44824 26.8901H7.37937C6.51858 26.6567 5.68074 26.312 4.91177 25.8784C4.21166 25.5004 3.58041 25.0112 3.04098 24.433C2.54746 23.8882 2.09985 23.299 1.70962 22.6875C1.31939 22.0871 1.02099 21.4311 0.825872 20.7529C0.63076 20.0969 0.470078 19.4187 0.320874 18.7294C0.17167 18.0623 0.0913296 17.3841 0.0683751 16.6948C0.0454207 16.0388 0.0224662 15.4051 0.010989 14.7936C-0.0119655 14.2377 -0.000488281 13.6929 0.0454207 13.137C0.148716 8.68968 1.20462 5.47652 3.23609 3.5086C4.49859 2.39679 6.19722 1.58516 8.30903 1.05149C10.4208 0.517813 12.2342 0.250977 13.7607 0.250977H15.9758C17.9958 0.273213 20.0043 0.506695 21.9669 0.951422C23.7574 1.38503 24.9969 1.78529 25.6741 2.17442C26.2594 2.50797 26.8103 2.88599 27.3268 3.3196ZM28.2106 17.8733C28.6352 14.6824 28.6008 11.9695 28.1187 9.73479C27.6367 7.51115 26.7989 5.89901 25.6167 4.92061C25.3183 4.63154 24.8592 4.33135 24.228 3.9978C23.5967 3.66426 22.5064 3.34183 20.9684 3.0194C19.2927 2.67474 17.5826 2.48573 15.861 2.4635H15.0576C14.7018 2.4635 14.0476 2.49685 13.095 2.55244C12.1769 2.60803 11.2702 2.7081 10.3635 2.86375C9.39937 3.03052 8.44676 3.29736 7.54005 3.66426C6.53006 4.0534 5.7037 4.55371 5.07245 5.16521C3.33939 6.79959 2.43269 9.47907 2.35234 13.2148C2.39825 14.0042 2.39825 14.7936 2.35234 15.583C2.31791 16.4946 2.39825 17.3952 2.60484 18.2847C2.79996 19.2075 3.08689 20.1192 3.46564 20.9864C3.82143 21.8203 4.42972 22.5985 5.27904 23.3212C6.17426 24.0661 7.24165 24.5998 8.38937 24.8889C8.34346 28.1243 8.32051 29.8809 8.32051 30.17C8.32051 30.4591 8.40085 30.6259 8.573 30.6926C8.74516 30.7593 8.90584 30.6814 9.078 30.4813L13.3934 25.6338C14.7248 25.7116 16.0562 25.7116 17.3875 25.6004C18.386 25.5448 19.3846 25.4337 20.3716 25.2669C20.8192 25.1891 21.2668 25.089 21.703 24.9556C21.9095 24.9222 22.1047 24.8889 22.2998 24.8333C22.6211 24.7666 22.9425 24.6665 23.2524 24.5553C23.5278 24.4553 23.8951 24.2996 24.3657 24.0995C24.8248 23.8994 25.2494 23.6214 25.6052 23.2767C25.9954 22.8876 26.3742 22.4762 26.7185 22.0426C27.1317 21.5089 27.4531 20.9086 27.6711 20.2637C27.9121 19.4743 28.1073 18.6849 28.2106 17.8733ZM22.954 20.4527C22.5638 21.1087 22.0473 21.6868 21.4275 22.1427C20.8307 22.5763 20.2454 22.6875 19.6485 22.4762C18.9255 22.2761 17.904 21.8203 16.5726 21.1309C15.3905 20.5194 14.2542 19.8301 13.1754 19.0407C12.1654 18.2624 11.2472 17.3841 10.4553 16.4057C9.75516 15.5051 9.12391 14.5601 8.55005 13.5817C8.12539 12.8812 7.78108 12.2475 7.50562 11.6805C7.23017 11.1023 7.04653 10.7021 6.96619 10.4575L6.90881 10.135C6.69074 9.5569 6.80551 8.98987 7.25312 8.41172C7.72369 7.81134 8.32051 7.31102 9.00914 6.933C9.60596 6.64393 10.111 6.73288 10.5356 7.1776C11.0406 7.7891 11.4194 8.24495 11.6719 8.53402C11.9703 8.9454 12.2802 9.4346 12.6245 10.0127C13.0032 10.7132 12.9229 11.258 12.372 11.6694L11.6145 12.2253C11.4882 12.3031 11.3964 12.4254 11.362 12.5588C11.3161 12.6922 11.3046 12.8256 11.2931 12.9591V13.0814C11.339 13.2037 11.3849 13.3593 11.4538 13.5372C11.603 13.893 11.7637 14.2488 11.9588 14.5823C12.2228 15.0826 12.5441 15.5607 12.9114 15.9943C13.359 16.4946 13.864 16.9394 14.4379 17.3174C15.0921 17.7732 15.8381 18.1068 16.6185 18.2958C16.9629 18.318 17.2842 18.1735 17.5023 17.9289L18.1335 17.1951C18.5582 16.6614 19.1091 16.5836 19.7863 16.9505C20.8422 17.5175 21.8177 18.1957 22.7015 18.974C23.1606 19.3965 23.2524 19.8857 22.954 20.4527ZM23.6541 14.4378C23.6656 14.5712 23.5852 14.7046 23.459 14.7713C23.3327 14.838 23.172 14.838 23.0458 14.7713C22.9081 14.7157 22.8163 14.5823 22.8277 14.4378C22.8277 12.0251 22.0932 10.1239 20.6356 8.75639C19.178 7.38885 17.3531 6.69952 15.1495 6.69952C14.897 6.69952 14.7707 6.5661 14.7707 6.29927C14.7707 6.03243 14.897 5.89901 15.1495 5.89901C17.5941 5.89901 19.6256 6.66617 21.2324 8.20048C22.8392 9.73479 23.6426 11.8139 23.6541 14.4378ZM20.67 13.6373C20.7159 12.292 20.3142 11.1579 19.4649 10.2573C18.6156 9.35677 17.4105 8.84533 15.8496 8.72303C15.7004 8.73415 15.5626 8.64521 15.5282 8.51179C15.4823 8.37837 15.4938 8.23383 15.5626 8.11153C15.6315 7.98923 15.7692 7.9114 15.907 7.92252C17.6859 8.04482 19.0632 8.63409 20.0617 9.70143C21.0602 10.7688 21.5308 12.0696 21.4849 13.6262C21.4964 13.7596 21.416 13.893 21.2898 13.9597C21.1635 14.0264 21.0028 14.0264 20.8766 13.9597C20.7503 13.9152 20.6585 13.7818 20.67 13.6373ZM19.4075 12.9035C19.4075 13.1925 19.2698 13.3371 18.9943 13.3371C18.7189 13.3371 18.5812 13.2148 18.5812 12.9702C18.5008 11.6582 17.8007 10.9689 16.4923 10.88C16.3431 10.8911 16.2054 10.8021 16.148 10.6687C16.0791 10.5353 16.0906 10.3908 16.1824 10.2685C16.2628 10.1462 16.412 10.0795 16.5612 10.0795C18.3631 10.1573 19.3157 11.1023 19.4075 12.9035Z" fill="white"/>
</svg>
