<svg viewBox="0 0 23 23" xmlns="http://www.w3.org/2000/svg">
<path d="M16.7772 13.711L16.7686 13.7829C14.6613 12.7326 14.4409 12.5927 14.1687 13.0009C13.9799 13.2836 13.4298 13.9247 13.264 14.1145C13.0963 14.3014 12.9296 14.3157 12.645 14.1864C12.3575 14.0426 11.4346 13.7407 10.3421 12.7633C9.49115 12.0014 8.92 11.067 8.75133 10.7795C8.47055 10.2946 9.05799 10.2256 9.59273 9.21366C9.68857 9.01241 9.63969 8.85429 9.56878 8.7115C9.4969 8.56775 8.92479 7.15903 8.68521 6.59745C8.45521 6.0378 8.21851 6.10871 8.04122 6.10871C7.48923 6.0608 7.08578 6.06846 6.73024 6.43837C5.18352 8.13842 5.57356 9.89214 6.89699 11.757C9.49786 15.161 10.8836 15.7877 13.4174 16.6579C14.1016 16.8754 14.7255 16.8447 15.219 16.7738C15.7691 16.6866 16.9124 16.0829 17.151 15.4073C17.3953 14.7316 17.3953 14.171 17.3235 14.0417C17.2526 13.9123 17.0647 13.8404 16.7772 13.711Z" />
<path d="M19.6646 3.30565C12.2962 -3.81752 0.101581 1.34876 0.0967899 11.3977C0.0967899 13.4063 0.622905 15.3651 1.6253 17.0949L0 23L6.07093 21.4169C13.6464 25.5089 22.9958 20.0752 22.9996 11.4034C22.9996 8.35981 21.8113 5.4954 19.6503 3.34302L19.6646 3.30565ZM21.0849 11.3718C21.0791 18.6866 13.0494 23.2549 6.69863 19.5213L6.35364 19.3162L2.75995 20.2506L3.72306 16.7575L3.49402 16.3982C-0.458075 10.1068 4.08243 1.88446 11.5688 1.88446C14.1122 1.88446 16.4993 2.87632 18.2971 4.67316C20.094 6.45467 21.0849 8.84184 21.0849 11.3718Z" />
</svg>
