<svg width="54" height="20" viewBox="0 0 54 20" fill="none" xmlns="http://www.w3.org/2000/svg">
<g clip-path="url(#clip0)">
<path d="M14.9999 19.7105C14.1841 19.0254 13.3946 18.3666 12.5788 17.6815C12.4209 17.5497 12.5525 17.497 12.6051 17.418C13.3156 16.1531 14.0262 14.8619 14.763 13.597C14.8683 13.4126 14.8683 13.3072 14.6841 13.1754C11.5788 10.224 11.5525 5.32268 14.6577 2.31862C17.3946 -0.316519 21.842 -0.448276 24.6841 2.08146C26.5788 3.7416 27.4472 5.87606 27.263 8.37944C27.0262 11.7261 24.3683 14.572 21.0788 15.099C20.0788 15.2572 19.0525 15.2572 18.0788 14.9936C17.8683 14.9409 17.7367 14.9673 17.6051 15.1781C16.7367 16.7065 15.8683 18.2085 14.9999 19.7105ZM19.8156 11.6997C22.0262 11.6997 23.7893 9.90782 23.7893 7.66795C23.7893 5.53349 21.9735 3.76795 19.8156 3.76795C17.6051 3.76795 15.842 5.55984 15.842 7.77336C15.842 9.93417 17.6577 11.7261 19.8156 11.6997Z" fill="#191717"/>
<path d="M32.1841 19.7364C31.263 18.7351 30.3683 17.7601 29.4736 16.7851C28.7104 15.9682 27.9999 15.1249 27.2367 14.308C27.0525 14.1236 27.0262 14.0182 27.2104 13.781C27.8946 13.0168 28.4209 12.1472 28.8157 11.1722C29.8946 12.2526 31.1578 12.7796 32.6578 12.6215C33.842 12.5161 34.8157 11.9891 35.6052 11.0932C37.1578 9.30126 37.1052 6.69248 35.4999 4.95328C33.9209 3.2668 31.0788 2.89788 29.0262 4.79518C28.8157 4.26815 28.6052 3.74112 28.3157 3.24044C28.0788 2.84517 27.842 2.4499 27.5525 2.10734C27.4209 1.94923 27.4473 1.87017 27.6052 1.73842C29.2104 0.631657 30.9473 0.104629 32.8946 0.289089C35.4999 0.552603 37.4999 1.81747 38.8683 4.05734C40.5525 6.77153 40.3157 10.4344 38.2894 12.9114C36.7894 14.756 35.1315 16.4952 33.5262 18.2344C33.0788 18.7351 32.6315 19.2357 32.1841 19.7364Z" fill="#614E9E"/>
<path d="M44.763 6.74533C44.763 6.85074 44.763 6.98249 44.763 7.0879C44.763 9.0906 44.763 11.0933 44.763 13.1224C44.763 13.3859 44.6841 13.4649 44.4209 13.4386C43.6315 13.4122 42.8683 13.4122 42.0788 13.4386C41.8683 13.4386 41.8157 13.3859 41.8157 13.1751C41.8157 9.61763 41.8157 6.03384 41.8157 2.4764C41.8157 2.23924 41.8946 2.21289 42.1051 2.21289C42.8946 2.21289 43.7104 2.23924 44.4999 2.21289C44.7367 2.21289 44.8683 2.29194 44.9999 2.45005C46.6841 4.53181 48.3683 6.63992 50.0525 8.72168C50.1051 8.80074 50.1578 8.95885 50.2894 8.9325C50.4472 8.87979 50.3683 8.72168 50.3683 8.61628C50.3683 6.58722 50.3946 4.55816 50.3683 2.52911C50.3683 2.29194 50.4209 2.21289 50.6841 2.21289C51.4736 2.23924 52.2367 2.23924 53.0262 2.21289C53.2367 2.21289 53.3157 2.26559 53.3157 2.4764C53.3157 6.03384 53.3157 9.61763 53.3157 13.1751C53.3157 13.3859 53.263 13.4386 53.0525 13.4386C52.0788 13.4386 51.1051 13.4386 50.1578 13.4386C49.9736 13.4386 49.8946 13.3595 49.7894 13.2278C48.1841 11.1197 46.5788 9.01155 44.9999 6.90344C44.9472 6.85074 44.8946 6.77168 44.8683 6.71898C44.8157 6.71898 44.7894 6.74533 44.763 6.74533Z" fill="#191717"/>
<path d="M5.92092 5.24332C5.78934 5.16426 5.65776 5.19061 5.5525 5.19061C4.07882 5.19061 2.57882 5.19061 1.10513 5.19061C0.841977 5.19061 0.789345 5.13791 0.789345 4.8744C0.815661 4.08386 0.815661 3.29331 0.789345 2.50277C0.789345 2.29196 0.841977 2.23926 1.0525 2.23926C4.0525 2.23926 7.07882 2.23926 10.0788 2.23926C10.3157 2.23926 10.342 2.31831 10.342 2.52912C10.342 3.16156 10.342 3.79399 10.342 4.42642C10.342 4.61088 10.2893 4.76899 10.1578 4.90075C8.60513 6.63994 7.07882 8.40548 5.5525 10.1447C5.44724 10.2501 5.36829 10.3818 5.26303 10.5136C5.36829 10.619 5.47355 10.5663 5.57882 10.5663C7.07882 10.5663 8.57882 10.5663 10.0788 10.5663C10.3157 10.5663 10.3683 10.619 10.3683 10.8562C10.342 11.6467 10.3683 12.4109 10.3683 13.2014C10.3683 13.3859 10.342 13.4386 10.1314 13.4386C7.0525 13.4386 3.97355 13.4386 0.920924 13.4386C0.736714 13.4386 0.684082 13.4122 0.684082 13.2278C0.684082 12.6481 0.684082 12.0683 0.684082 11.4886C0.684082 11.3041 0.763029 11.1987 0.868292 11.0933C2.47356 9.22238 4.07882 7.37778 5.68408 5.50683C5.76303 5.42778 5.81566 5.34872 5.92092 5.24332Z" fill="#191717"/>
</g>
<defs>
<clipPath id="clip0">
<rect width="52.6316" height="19.4737" fill="white" transform="translate(0.684082 0.262695)"/>
</clipPath>
</defs>
</svg>
